0
SECTION
2
HEADER
9
$ACADVER
1
AC1009
0
ENDSEC
0
SECTION
2
ENTITIES
0
LINE
8
PERFIL
10
8.214872
20
-0.760515
30
0
11
8.889069
21
-0.822931
31
0
0
LINE
8
PERFIL
10
8.889069
20
-0.822931
30
0
11
9.020966
21
-0.819982
31
0
0
LINE
8
PERFIL
10
9.020966
20
-0.819982
30
0
11
9.153972
21
-0.804237
31
0
0
LINE
8
PERFIL
10
9.153972
20
-0.804237
30
0
11
9.287630
21
-0.779814
31
0
0
LINE
8
PERFIL
10
9.287630
20
-0.779814
30
0
11
9.421732
21
-0.748109
31
0
0
LINE
8
PERFIL
10
9.421732
20
-0.748109
30
0
11
9.556132
21
-0.709893
31
0
0
LINE
8
PERFIL
10
9.556132
20
-0.709893
30
0
11
9.690704
21
-0.665667
31
0
0
LINE
8
PERFIL
10
9.690704
20
-0.665667
30
0
11
9.825339
21
-0.615784
31
0
0
LINE
8
PERFIL
10
9.825339
20
-0.615784
30
0
11
9.959934
21
-0.560506
31
0
0
LINE
8
PERFIL
10
9.959934
20
-0.560506
30
0
11
10.094393
21
-0.500038
31
0
0
LINE
8
PERFIL
10
10.094393
20
-0.500038
30
0
11
10.228620
21
-0.434543
31
0
0
LINE
8
PERFIL
10
10.228620
20
-0.434543
30
0
11
10.362527
21
-0.364154
31
0
0
LINE
8
PERFIL
10
10.362527
20
-0.364154
30
0
11
10.496022
21
-0.288984
31
0
0
LINE
8
PERFIL
10
10.496022
20
0.288984
30
0
11
10.362527
21
0.364154
31
0
0
LINE
8
PERFIL
10
10.362527
20
0.364154
30
0
11
10.228620
21
0.434543
31
0
0
LINE
8
PERFIL
10
10.228620
20
0.434543
30
0
11
10.094393
21
0.500038
31
0
0
LINE
8
PERFIL
10
10.094393
20
0.500038
30
0
11
9.959934
21
0.560506
31
0
0
LINE
8
PERFIL
10
9.959934
20
0.560506
30
0
11
9.825339
21
0.615784
31
0
0
LINE
8
PERFIL
10
9.825339
20
0.615784
30
0
11
9.690704
21
0.665667
31
0
0
LINE
8
PERFIL
10
9.690704
20
0.665667
30
0
11
9.556132
21
0.709893
31
0
0
LINE
8
PERFIL
10
9.556132
20
0.709893
30
0
11
9.421732
21
0.748109
31
0
0
LINE
8
PERFIL
10
9.421732
20
0.748109
30
0
11
9.287630
21
0.779814
31
0
0
LINE
8
PERFIL
10
9.287630
20
0.779814
30
0
11
9.153972
21
0.804237
31
0
0
LINE
8
PERFIL
10
9.153972
20
0.804237
30
0
11
9.020966
21
0.819982
31
0
0
LINE
8
PERFIL
10
9.020966
20
0.819982
30
0
11
8.889069
21
0.822931
31
0
0
LINE
8
PERFIL
10
8.889069
20
0.822931
30
0
11
8.214872
21
0.760515
31
0
0
LINE
8
PERFIL
10
8.016706
20
1.948056
30
0
11
8.674640
21
2.107934
31
0
0
LINE
8
PERFIL
10
8.674640
20
2.107934
30
0
11
8.798433
21
2.153550
31
0
0
LINE
8
PERFIL
10
8.798433
20
2.153550
30
0
11
8.919120
21
2.211628
31
0
0
LINE
8
PERFIL
10
8.919120
20
2.211628
30
0
11
9.037606
21
2.278127
31
0
0
LINE
8
PERFIL
10
9.037606
20
2.278127
30
0
11
9.154147
21
2.351658
31
0
0
LINE
8
PERFIL
10
9.154147
20
2.351658
30
0
11
9.268856
21
2.431442
31
0
0
LINE
8
PERFIL
10
9.268856
20
2.431442
30
0
11
9.381777
21
2.516967
31
0
0
LINE
8
PERFIL
10
9.381777
20
2.516967
30
0
11
9.492920
21
2.607863
31
0
0
LINE
8
PERFIL
10
9.492920
20
2.607863
30
0
11
9.602274
21
2.703849
31
0
0
LINE
8
PERFIL
10
9.602274
20
2.703849
30
0
11
9.709813
21
2.804699
31
0
0
LINE
8
PERFIL
10
9.709813
20
2.804699
30
0
11
9.815501
21
2.910230
31
0
0
LINE
8
PERFIL
10
9.815501
20
2.910230
30
0
11
9.919297
21
3.020284
31
0
0
LINE
8
PERFIL
10
9.919297
20
3.020284
30
0
11
10.021152
21
3.134727
31
0
0
LINE
8
PERFIL
10
9.833486
20
3.681379
30
0
11
9.682816
21
3.709130
31
0
0
LINE
8
PERFIL
10
9.682816
20
3.709130
30
0
11
9.533310
21
3.732226
31
0
0
LINE
8
PERFIL
10
9.533310
20
3.732226
30
0
11
9.385088
21
3.750589
31
0
0
LINE
8
PERFIL
10
9.385088
20
3.750589
30
0
11
9.238281
21
3.764122
31
0
0
LINE
8
PERFIL
10
9.238281
20
3.764122
30
0
11
9.093030
21
3.772702
31
0
0
LINE
8
PERFIL
10
9.093030
20
3.772702
30
0
11
8.949493
21
3.776166
31
0
0
LINE
8
PERFIL
10
8.949493
20
3.776166
30
0
11
8.807852
21
3.774300
31
0
0
LINE
8
PERFIL
10
8.807852
20
3.774300
30
0
11
8.668327
21
3.766806
31
0
0
LINE
8
PERFIL
10
8.668327
20
3.766806
30
0
11
8.531195
21
3.753250
31
0
0
LINE
8
PERFIL
10
8.531195
20
3.753250
30
0
11
8.396849
21
3.732952
31
0
0
LINE
8
PERFIL
10
8.396849
20
3.732952
30
0
11
8.265938
21
3.704656
31
0
0
LINE
8
PERFIL
10
8.265938
20
3.704656
30
0
11
8.140229
21
3.664618
31
0
0
LINE
8
PERFIL
10
8.140229
20
3.664618
30
0
11
7.522828
21
3.386673
31
0
0
LINE
8
PERFIL
10
6.949806
20
4.445525
30
0
11
7.520179
21
4.810371
31
0
0
LINE
8
PERFIL
10
7.520179
20
4.810371
30
0
11
7.622453
21
4.893711
31
0
0
LINE
8
PERFIL
10
7.622453
20
4.893711
30
0
11
7.717743
21
4.987830
31
0
0
LINE
8
PERFIL
10
7.717743
20
4.987830
30
0
11
7.808217
21
5.089197
31
0
0
LINE
8
PERFIL
10
7.808217
20
5.089197
30
0
11
7.894569
21
5.196585
31
0
0
LINE
8
PERFIL
10
7.894569
20
5.196585
30
0
11
7.977156
21
5.309292
31
0
0
LINE
8
PERFIL
10
7.977156
20
5.309292
30
0
11
8.056188
21
5.426849
31
0
0
LINE
8
PERFIL
10
8.056188
20
5.426849
30
0
11
8.131795
21
5.548908
31
0
0
LINE
8
PERFIL
10
8.131795
20
5.548908
30
0
11
8.204058
21
5.675200
31
0
0
LINE
8
PERFIL
10
8.204058
20
5.675200
30
0
11
8.273024
21
5.805504
31
0
0
LINE
8
PERFIL
10
8.273024
20
5.805504
30
0
11
8.338720
21
5.939633
31
0
0
LINE
8
PERFIL
10
8.338720
20
5.939633
30
0
11
8.401158
21
6.077427
31
0
0
LINE
8
PERFIL
10
8.401158
20
6.077427
30
0
11
8.460334
21
6.218741
31
0
0
LINE
8
PERFIL
10
8.105339
20
6.674839
30
0
11
7.953822
21
6.652164
31
0
0
LINE
8
PERFIL
10
7.953822
20
6.652164
30
0
11
7.804917
21
6.625464
31
0
0
LINE
8
PERFIL
10
7.804917
20
6.625464
30
0
11
7.658764
21
6.594705
31
0
0
LINE
8
PERFIL
10
7.658764
20
6.594705
30
0
11
7.515517
21
6.559837
31
0
0
LINE
8
PERFIL
10
7.515517
20
6.559837
30
0
11
7.375351
21
6.520788
31
0
0
LINE
8
PERFIL
10
7.375351
20
6.520788
30
0
11
7.238466
21
6.477459
31
0
0
LINE
8
PERFIL
10
7.238466
20
6.477459
30
0
11
7.105105
21
6.429703
31
0
0
LINE
8
PERFIL
10
7.105105
20
6.429703
30
0
11
6.975573
21
6.377311
31
0
0
LINE
8
PERFIL
10
6.975573
20
6.377311
30
0
11
6.850273
21
6.319963
31
0
0
LINE
8
PERFIL
10
6.850273
20
6.319963
30
0
11
6.729798
21
6.257143
31
0
0
LINE
8
PERFIL
10
6.729798
20
6.257143
30
0
11
6.615166
21
6.187873
31
0
0
LINE
8
PERFIL
10
6.615166
20
6.187873
30
0
11
6.509270
21
6.109187
31
0
0
LINE
8
PERFIL
10
6.509270
20
6.109187
30
0
11
6.015570
21
5.645832
31
0
0
LINE
8
PERFIL
10
5.129787
20
6.461253
30
0
11
5.550790
21
6.991530
31
0
0
LINE
8
PERFIL
10
5.550790
20
6.991530
30
0
11
5.620462
21
7.103563
31
0
0
LINE
8
PERFIL
10
5.620462
20
7.103563
30
0
11
5.680029
21
7.223523
31
0
0
LINE
8
PERFIL
10
5.680029
20
7.223523
30
0
11
5.732686
21
7.348774
31
0
0
LINE
8
PERFIL
10
5.732686
20
7.348774
30
0
11
5.779491
21
7.478382
31
0
0
LINE
8
PERFIL
10
5.779491
20
7.478382
30
0
11
5.821007
21
7.611799
31
0
0
LINE
8
PERFIL
10
5.821007
20
7.611799
30
0
11
5.857587
21
7.748647
31
0
0
LINE
8
PERFIL
10
5.857587
20
7.748647
30
0
11
5.889465
21
7.888642
31
0
0
LINE
8
PERFIL
10
5.889465
20
7.888642
30
0
11
5.916805
21
8.031555
31
0
0
LINE
8
PERFIL
10
5.916805
20
8.031555
30
0
11
5.939725
21
8.177192
31
0
0
LINE
8
PERFIL
10
5.939725
20
8.177192
30
0
11
5.958310
21
8.325386
31
0
0
LINE
8
PERFIL
10
5.958310
20
8.325386
30
0
11
5.972622
21
8.475987
31
0
0
LINE
8
PERFIL
10
5.972622
20
8.475987
30
0
11
5.982708
21
8.628859
31
0
0
LINE
8
PERFIL
10
5.498852
20
8.944977
30
0
11
5.362907
21
8.874333
31
0
0
LINE
8
PERFIL
10
5.362907
20
8.874333
30
0
11
5.230740
21
8.800731
31
0
0
LINE
8
PERFIL
10
5.230740
20
8.800731
30
0
11
5.102494
21
8.724182
31
0
0
LINE
8
PERFIL
10
5.102494
20
8.724182
30
0
11
4.978330
21
8.644691
31
0
0
LINE
8
PERFIL
10
4.978330
20
8.644691
30
0
11
4.858437
21
8.562246
31
0
0
LINE
8
PERFIL
10
4.858437
20
8.562246
30
0
11
4.743038
21
8.476818
31
0
0
LINE
8
PERFIL
10
4.743038
20
8.476818
30
0
11
4.632410
21
8.388348
31
0
0
LINE
8
PERFIL
10
4.632410
20
8.388348
30
0
11
4.526908
21
8.296735
31
0
0
LINE
8
PERFIL
10
4.526908
20
8.296735
30
0
11
4.427018
21
8.201810
31
0
0
LINE
8
PERFIL
10
4.427018
20
8.201810
30
0
11
4.333468
21
8.103275
31
0
0
LINE
8
PERFIL
10
4.333468
20
8.103275
30
0
11
4.247539
21
8.000538
31
0
0
LINE
8
PERFIL
10
4.247539
20
8.000538
30
0
11
4.172930
21
7.891731
31
0
0
LINE
8
PERFIL
10
4.172930
20
7.891731
30
0
11
3.856431
21
7.293178
31
0
0
LINE
8
PERFIL
10
2.753875
20
7.776803
30
0
11
2.979887
21
8.415048
31
0
0
LINE
8
PERFIL
10
2.979887
20
8.415048
30
0
11
3.009407
21
8.543633
31
0
0
LINE
8
PERFIL
10
3.009407
20
8.543633
30
0
11
3.026795
21
8.676435
31
0
0
LINE
8
PERFIL
10
3.026795
20
8.676435
30
0
11
3.035930
21
8.811998
31
0
0
LINE
8
PERFIL
10
3.035930
20
8.811998
30
0
11
3.038115
21
8.949780
31
0
0
LINE
8
PERFIL
10
3.038115
20
8.949780
30
0
11
3.034062
21
9.089448
31
0
0
LINE
8
PERFIL
10
3.034062
20
9.089448
30
0
11
3.024225
21
9.230759
31
0
0
LINE
8
PERFIL
10
3.024225
20
9.230759
30
0
11
3.008919
21
9.373520
31
0
0
LINE
8
PERFIL
10
3.008919
20
9.373520
30
0
11
2.988374
21
9.517567
31
0
0
LINE
8
PERFIL
10
2.988374
20
9.517567
30
0
11
2.962764
21
9.662755
31
0
0
LINE
8
PERFIL
10
2.962764
20
9.662755
30
0
11
2.932224
21
9.808953
31
0
0
LINE
8
PERFIL
10
2.932224
20
9.808953
30
0
11
2.896861
21
9.956042
31
0
0
LINE
8
PERFIL
10
2.896861
20
9.956042
30
0
11
2.856762
21
10.103906
31
0
0
LINE
8
PERFIL
10
2.296480
20
10.245788
30
0
11
2.190839
21
10.134831
31
0
0
LINE
8
PERFIL
10
2.190839
20
10.134831
30
0
11
2.089732
21
10.022301
31
0
0
LINE
8
PERFIL
10
2.089732
20
10.022301
30
0
11
1.993290
21
9.908259
31
0
0
LINE
8
PERFIL
10
1.993290
20
9.908259
30
0
11
1.901664
21
9.792759
31
0
0
LINE
8
PERFIL
10
1.901664
20
9.792759
30
0
11
1.815037
21
9.675852
31
0
0
LINE
8
PERFIL
10
1.815037
20
9.675852
30
0
11
1.733629
21
9.557583
31
0
0
LINE
8
PERFIL
10
1.733629
20
9.557583
30
0
11
1.657721
21
9.437985
31
0
0
LINE
8
PERFIL
10
1.657721
20
9.437985
30
0
11
1.587682
21
9.317080
31
0
0
LINE
8
PERFIL
10
1.587682
20
9.317080
30
0
11
1.524026
21
9.194864
31
0
0
LINE
8
PERFIL
10
1.524026
20
9.194864
30
0
11
1.467539
21
9.071292
31
0
0
LINE
8
PERFIL
10
1.467539
20
9.071292
30
0
11
1.419626
21
8.946221
31
0
0
LINE
8
PERFIL
10
1.419626
20
8.946221
30
0
11
1.384388
21
8.819083
31
0
0
LINE
8
PERFIL
10
1.384388
20
8.819083
30
0
11
1.279388
21
8.150194
31
0
0
LINE
8
PERFIL
10
0.079539
20
8.249617
30
0
11
0.086067
21
8.926665
31
0
0
LINE
8
PERFIL
10
0.086067
20
8.926665
30
0
11
0.072236
21
9.057869
31
0
0
LINE
8
PERFIL
10
0.072236
20
9.057869
30
0
11
0.045562
21
9.189120
31
0
0
LINE
8
PERFIL
10
0.045562
20
9.189120
30
0
11
0.010184
21
9.320304
31
0
0
LINE
8
PERFIL
10
0.010184
20
9.320304
30
0
11
-0.032487
21
9.451331
31
0
0
LINE
8
PERFIL
10
-0.032487
20
9.451331
30
0
11
-0.081671
21
9.582115
31
0
0
LINE
8
PERFIL
10
-0.081671
20
9.582115
30
0
11
-0.136858
21
9.712576
31
0
0
LINE
8
PERFIL
10
-0.136858
20
9.712576
30
0
11
-0.197689
21
9.842632
31
0
0
LINE
8
PERFIL
10
-0.197689
20
9.842632
30
0
11
-0.263893
21
9.972202
31
0
0
LINE
8
PERFIL
10
-0.263893
20
9.972202
30
0
11
-0.335258
21
10.101208
31
0
0
LINE
8
PERFIL
10
-0.335258
20
10.101208
30
0
11
-0.411614
21
10.229569
31
0
0
LINE
8
PERFIL
10
-0.411614
20
10.229569
30
0
11
-0.492820
21
10.357205
31
0
0
LINE
8
PERFIL
10
-0.492820
20
10.357205
30
0
11
-0.578758
21
10.484037
31
0
0
LINE
8
PERFIL
10
-1.154752
20
10.436309
30
0
11
-1.218641
21
10.297062
31
0
0
LINE
8
PERFIL
10
-1.218641
20
10.297062
30
0
11
-1.277731
21
10.157800
31
0
0
LINE
8
PERFIL
10
-1.277731
20
10.157800
30
0
11
-1.331919
21
10.018622
31
0
0
LINE
8
PERFIL
10
-1.331919
20
10.018622
30
0
11
-1.381077
21
9.879630
31
0
0
LINE
8
PERFIL
10
-1.381077
20
9.879630
30
0
11
-1.425051
21
9.740929
31
0
0
LINE
8
PERFIL
10
-1.425051
20
9.740929
30
0
11
-1.463646
21
9.602635
31
0
0
LINE
8
PERFIL
10
-1.463646
20
9.602635
30
0
11
-1.496607
21
9.464870
31
0
0
LINE
8
PERFIL
10
-1.496607
20
9.464870
30
0
11
-1.523594
21
9.327774
31
0
0
LINE
8
PERFIL
10
-1.523594
20
9.327774
30
0
11
-1.544117
21
9.191511
31
0
0
LINE
8
PERFIL
10
-1.544117
20
9.191511
30
0
11
-1.557420
21
9.056293
31
0
0
LINE
8
PERFIL
10
-1.557420
20
9.056293
30
0
11
-1.562127
21
8.922441
31
0
0
LINE
8
PERFIL
10
-1.562127
20
8.922441
30
0
11
-1.554174
21
8.790751
31
0
0
LINE
8
PERFIL
10
-1.554174
20
8.790751
30
0
11
-1.436296
21
8.124011
31
0
0
LINE
8
PERFIL
10
-2.603417
20
7.828456
30
0
11
-2.817080
21
8.470939
31
0
0
LINE
8
PERFIL
10
-2.817080
20
8.470939
30
0
11
-2.872763
21
8.590543
31
0
0
LINE
8
PERFIL
10
-2.872763
20
8.590543
30
0
11
-2.940610
21
8.706022
31
0
0
LINE
8
PERFIL
10
-2.940610
20
8.706022
30
0
11
-3.016665
21
8.818611
31
0
0
LINE
8
PERFIL
10
-3.016665
20
8.818611
30
0
11
-3.099569
21
8.928683
31
0
0
LINE
8
PERFIL
10
-3.099569
20
8.928683
30
0
11
-3.188553
21
9.036411
31
0
0
LINE
8
PERFIL
10
-3.188553
20
9.036411
30
0
11
-3.283111
21
9.141884
31
0
0
LINE
8
PERFIL
10
-3.283111
20
9.141884
30
0
11
-3.382875
21
9.245141
31
0
0
LINE
8
PERFIL
10
-3.382875
20
9.245141
30
0
11
-3.487563
21
9.346195
31
0
0
LINE
8
PERFIL
10
-3.487563
20
9.346195
30
0
11
-3.596950
21
9.445039
31
0
0
LINE
8
PERFIL
10
-3.596950
20
9.445039
30
0
11
-3.710847
21
9.541652
31
0
0
LINE
8
PERFIL
10
-3.710847
20
9.541652
30
0
11
-3.829097
21
9.636005
31
0
0
LINE
8
PERFIL
10
-3.829097
20
9.636005
30
0
11
-3.951560
21
9.728061
31
0
0
LINE
8
PERFIL
10
-4.480848
20
9.495894
30
0
11
-4.496062
21
9.343447
31
0
0
LINE
8
PERFIL
10
-4.496062
20
9.343447
30
0
11
-4.506733
21
9.192544
31
0
0
LINE
8
PERFIL
10
-4.506733
20
9.192544
30
0
11
-4.512793
21
9.043312
31
0
0
LINE
8
PERFIL
10
-4.512793
20
9.043312
30
0
11
-4.514157
21
8.895889
31
0
0
LINE
8
PERFIL
10
-4.514157
20
8.895889
30
0
11
-4.510712
21
8.750426
31
0
0
LINE
8
PERFIL
10
-4.510712
20
8.750426
30
0
11
-4.502312
21
8.607093
31
0
0
LINE
8
PERFIL
10
-4.502312
20
8.607093
30
0
11
-4.488755
21
8.466090
31
0
0
LINE
8
PERFIL
10
-4.488755
20
8.466090
30
0
11
-4.469765
21
8.327659
31
0
0
LINE
8
PERFIL
10
-4.469765
20
8.327659
30
0
11
-4.444931
21
8.192116
31
0
0
LINE
8
PERFIL
10
-4.444931
20
8.192116
30
0
11
-4.413608
21
8.059905
31
0
0
LINE
8
PERFIL
10
-4.413608
20
8.059905
30
0
11
-4.374598
21
7.931777
31
0
0
LINE
8
PERFIL
10
-4.374598
20
7.931777
30
0
11
-4.324316
21
7.809804
31
0
0
LINE
8
PERFIL
10
-4.324316
20
7.809804
30
0
11
-3.996336
21
7.217465
31
0
0
LINE
8
PERFIL
10
-5.004252
20
6.558960
30
0
11
-5.414952
21
7.097256
31
0
0
LINE
8
PERFIL
10
-5.414952
20
7.097256
30
0
11
-5.506454
21
7.192299
31
0
0
LINE
8
PERFIL
10
-5.506454
20
7.192299
30
0
11
-5.608120
21
7.279492
31
0
0
LINE
8
PERFIL
10
-5.608120
20
7.279492
30
0
11
-5.716612
21
7.361285
31
0
0
LINE
8
PERFIL
10
-5.716612
20
7.361285
30
0
11
-5.830764
21
7.438474
31
0
0
LINE
8
PERFIL
10
-5.830764
20
7.438474
30
0
11
-5.949907
21
7.511472
31
0
0
LINE
8
PERFIL
10
-5.949907
20
7.511472
30
0
11
-6.073588
21
7.580527
31
0
0
LINE
8
PERFIL
10
-6.073588
20
7.580527
30
0
11
-6.201474
21
7.645796
31
0
0
LINE
8
PERFIL
10
-6.201474
20
7.645796
30
0
11
-6.333302
21
7.707382
31
0
0
LINE
8
PERFIL
10
-6.333302
20
7.707382
30
0
11
-6.468856
21
7.765353
31
0
0
LINE
8
PERFIL
10
-6.468856
20
7.765353
30
0
11
-6.607953
21
7.819748
31
0
0
LINE
8
PERFIL
10
-6.607953
20
7.819748
30
0
11
-6.750432
21
7.870594
31
0
0
LINE
8
PERFIL
10
-6.750432
20
7.870594
30
0
11
-6.896150
21
7.917898
31
0
0
LINE
8
PERFIL
10
-7.321375
20
7.526451
30
0
11
-7.286265
21
7.377324
31
0
0
LINE
8
PERFIL
10
-7.286265
20
7.377324
30
0
11
-7.247360
21
7.231133
31
0
0
LINE
8
PERFIL
10
-7.247360
20
7.231133
30
0
11
-7.204636
21
7.088019
31
0
0
LINE
8
PERFIL
10
-7.204636
20
7.088019
30
0
11
-7.158058
21
6.948141
31
0
0
LINE
8
PERFIL
10
-7.158058
20
6.948141
30
0
11
-7.107568
21
6.811678
31
0
0
LINE
8
PERFIL
10
-7.107568
20
6.811678
30
0
11
-7.053083
21
6.678838
31
0
0
LINE
8
PERFIL
10
-7.053083
20
6.678838
30
0
11
-6.994477
21
6.549877
31
0
0
LINE
8
PERFIL
10
-6.994477
20
6.549877
30
0
11
-6.931567
21
6.425114
31
0
0
LINE
8
PERFIL
10
-6.931567
20
6.425114
30
0
11
-6.864068
21
6.304977
31
0
0
LINE
8
PERFIL
10
-6.864068
20
6.304977
30
0
11
-6.791514
21
6.190101
31
0
0
LINE
8
PERFIL
10
-6.791514
20
6.190101
30
0
11
-6.713014
21
6.081582
31
0
0
LINE
8
PERFIL
10
-6.713014
20
6.081582
30
0
11
-6.625852
21
5.982544
31
0
0
LINE
8
PERFIL
10
-6.625852
20
5.982544
30
0
11
-6.123310
21
5.528795
31
0
0
LINE
8
PERFIL
10
-6.862799
20
4.578700
30
0
11
-7.426031
21
4.954475
31
0
0
LINE
8
PERFIL
10
-7.426031
20
4.954475
30
0
11
-7.543435
21
5.014658
31
0
0
LINE
8
PERFIL
10
-7.543435
20
5.014658
30
0
11
-7.667904
21
5.064115
31
0
0
LINE
8
PERFIL
10
-7.667904
20
5.064115
30
0
11
-7.797076
21
5.106249
31
0
0
LINE
8
PERFIL
10
-7.797076
20
5.106249
30
0
11
-7.930106
21
5.142191
31
0
0
LINE
8
PERFIL
10
-7.930106
20
5.142191
30
0
11
-8.066495
21
5.172548
31
0
0
LINE
8
PERFIL
10
-8.066495
20
5.172548
30
0
11
-8.205897
21
5.197702
31
0
0
LINE
8
PERFIL
10
-8.205897
20
5.197702
30
0
11
-8.348047
21
5.217911
31
0
0
LINE
8
PERFIL
10
-8.348047
20
5.217911
30
0
11
-8.492729
21
5.233355
31
0
0
LINE
8
PERFIL
10
-8.492729
20
5.233355
30
0
11
-8.639761
21
5.244170
31
0
0
LINE
8
PERFIL
10
-8.639761
20
5.244170
30
0
11
-8.788984
21
5.250454
31
0
0
LINE
8
PERFIL
10
-8.788984
20
5.250454
30
0
11
-8.940252
21
5.252282
31
0
0
LINE
8
PERFIL
10
-8.940252
20
5.252282
30
0
11
-9.093435
21
5.249708
31
0
0
LINE
8
PERFIL
10
-9.368517
20
4.741401
30
0
11
-9.286889
21
4.611754
31
0
0
LINE
8
PERFIL
10
-9.286889
20
4.611754
30
0
11
-9.202623
21
4.486116
31
0
0
LINE
8
PERFIL
10
-9.202623
20
4.486116
30
0
11
-9.115745
21
4.364629
31
0
0
LINE
8
PERFIL
10
-9.115745
20
4.364629
30
0
11
-9.026272
21
4.247454
31
0
0
LINE
8
PERFIL
10
-9.026272
20
4.247454
30
0
11
-8.934209
21
4.134778
31
0
0
LINE
8
PERFIL
10
-8.934209
20
4.134778
30
0
11
-8.839542
21
4.026828
31
0
0
LINE
8
PERFIL
10
-8.839542
20
4.026828
30
0
11
-8.742239
21
3.923884
31
0
0
LINE
8
PERFIL
10
-8.742239
20
3.923884
30
0
11
-8.642227
21
3.826307
31
0
0
LINE
8
PERFIL
10
-8.642227
20
3.826307
30
0
11
-8.539377
21
3.734597
31
0
0
LINE
8
PERFIL
10
-8.539377
20
3.734597
30
0
11
-8.433453
21
3.649504
31
0
0
LINE
8
PERFIL
10
-8.433453
20
3.649504
30
0
11
-8.323971
21
3.572353
31
0
0
LINE
8
PERFIL
10
-8.323971
20
3.572353
30
0
11
-8.209374
21
3.506983
31
0
0
LINE
8
PERFIL
10
-8.209374
20
3.506983
30
0
11
-7.586729
21
3.240994
31
0
0
LINE
8
PERFIL
10
-7.977655
20
2.102266
30
0
11
-8.632383
21
2.274800
31
0
0
LINE
8
PERFIL
10
-8.632383
20
2.274800
30
0
11
-8.762967
21
2.293601
31
0
0
LINE
8
PERFIL
10
-8.762967
20
2.293601
30
0
11
-8.896751
21
2.299963
31
0
0
LINE
8
PERFIL
10
-8.896751
20
2.299963
30
0
11
-9.032605
21
2.297872
31
0
0
LINE
8
PERFIL
10
-9.032605
20
2.297872
30
0
11
-9.170098
21
2.288672
31
0
0
LINE
8
PERFIL
10
-9.170098
20
2.288672
30
0
11
-9.308954
21
2.273099
31
0
0
LINE
8
PERFIL
10
-9.308954
20
2.273099
30
0
11
-9.448970
21
2.251626
31
0
0
LINE
8
PERFIL
10
-9.448970
20
2.251626
30
0
11
-9.589979
21
2.224583
31
0
0
LINE
8
PERFIL
10
-9.589979
20
2.224583
30
0
11
-9.731837
21
2.192213
31
0
0
LINE
8
PERFIL
10
-9.731837
20
2.192213
30
0
11
-9.874415
21
2.154701
31
0
0
LINE
8
PERFIL
10
-9.874415
20
2.154701
30
0
11
-10.017592
21
2.112192
31
0
0
LINE
8
PERFIL
10
-10.017592
20
2.112192
30
0
11
-10.161258
21
2.064803
31
0
0
LINE
8
PERFIL
10
-10.161258
20
2.064803
30
0
11
-10.305305
21
2.012631
31
0
0
LINE
8
PERFIL
10
-10.400436
20
1.442546
30
0
11
-10.281133
21
1.346428
31
0
0
LINE
8
PERFIL
10
-10.281133
20
1.346428
30
0
11
-10.160639
21
1.254959
31
0
0
LINE
8
PERFIL
10
-10.160639
20
1.254959
30
0
11
-10.039022
21
1.168264
31
0
0
LINE
8
PERFIL
10
-10.039022
20
1.168264
30
0
11
-9.916350
21
1.086489
31
0
0
LINE
8
PERFIL
10
-9.916350
20
1.086489
30
0
11
-9.792689
21
1.009812
31
0
0
LINE
8
PERFIL
10
-9.792689
20
1.009812
30
0
11
-9.668101
21
0.938449
31
0
0
LINE
8
PERFIL
10
-9.668101
20
0.938449
30
0
11
-9.542643
21
0.872677
31
0
0
LINE
8
PERFIL
10
-9.542643
20
0.872677
30
0
11
-9.416367
21
0.812861
31
0
0
LINE
8
PERFIL
10
-9.416367
20
0.812861
30
0
11
-9.289312
21
0.759515
31
0
0
LINE
8
PERFIL
10
-9.289312
20
0.759515
30
0
11
-9.161497
21
0.713426
31
0
0
LINE
8
PERFIL
10
-9.161497
20
0.713426
30
0
11
-9.032897
21
0.676004
31
0
0
LINE
8
PERFIL
10
-9.032897
20
0.676004
30
0
11
-8.903283
21
0.651385
31
0
0
LINE
8
PERFIL
10
-8.903283
20
0.651385
30
0
11
-8.228008
21
0.601981
31
0
0
LINE
8
PERFIL
10
-8.228008
20
-0.601981
30
0
11
-8.903283
21
-0.651385
31
0
0
LINE
8
PERFIL
10
-8.903283
20
-0.651385
30
0
11
-9.032897
21
-0.676004
31
0
0
LINE
8
PERFIL
10
-9.032897
20
-0.676004
30
0
11
-9.161497
21
-0.713426
31
0
0
LINE
8
PERFIL
10
-9.161497
20
-0.713426
30
0
11
-9.289312
21
-0.759515
31
0
0
LINE
8
PERFIL
10
-9.289312
20
-0.759515
30
0
11
-9.416367
21
-0.812861
31
0
0
LINE
8
PERFIL
10
-9.416367
20
-0.812861
30
0
11
-9.542643
21
-0.872677
31
0
0
LINE
8
PERFIL
10
-9.542643
20
-0.872677
30
0
11
-9.668101
21
-0.938449
31
0
0
LINE
8
PERFIL
10
-9.668101
20
-0.938449
30
0
11
-9.792689
21
-1.009812
31
0
0
LINE
8
PERFIL
10
-9.792689
20
-1.009812
30
0
11
-9.916350
21
-1.086489
31
0
0
LINE
8
PERFIL
10
-9.916350
20
-1.086489
30
0
11
-10.039022
21
-1.168264
31
0
0
LINE
8
PERFIL
10
-10.039022
20
-1.168264
30
0
11
-10.160639
21
-1.254959
31
0
0
LINE
8
PERFIL
10
-10.160639
20
-1.254959
30
0
11
-10.281133
21
-1.346428
31
0
0
LINE
8
PERFIL
10
-10.281133
20
-1.346428
30
0
11
-10.400436
21
-1.442546
31
0
0
LINE
8
PERFIL
10
-10.305305
20
-2.012631
30
0
11
-10.161258
21
-2.064803
31
0
0
LINE
8
PERFIL
10
-10.161258
20
-2.064803
30
0
11
-10.017592
21
-2.112192
31
0
0
LINE
8
PERFIL
10
-10.017592
20
-2.112192
30
0
11
-9.874415
21
-2.154701
31
0
0
LINE
8
PERFIL
10
-9.874415
20
-2.154701
30
0
11
-9.731837
21
-2.192213
31
0
0
LINE
8
PERFIL
10
-9.731837
20
-2.192213
30
0
11
-9.589979
21
-2.224583
31
0
0
LINE
8
PERFIL
10
-9.589979
20
-2.224583
30
0
11
-9.448970
21
-2.251626
31
0
0
LINE
8
PERFIL
10
-9.448970
20
-2.251626
30
0
11
-9.308954
21
-2.273099
31
0
0
LINE
8
PERFIL
10
-9.308954
20
-2.273099
30
0
11
-9.170098
21
-2.288672
31
0
0
LINE
8
PERFIL
10
-9.170098
20
-2.288672
30
0
11
-9.032605
21
-2.297872
31
0
0
LINE
8
PERFIL
10
-9.032605
20
-2.297872
30
0
11
-8.896751
21
-2.299963
31
0
0
LINE
8
PERFIL
10
-8.896751
20
-2.299963
30
0
11
-8.762967
21
-2.293601
31
0
0
LINE
8
PERFIL
10
-8.762967
20
-2.293601
30
0
11
-8.632383
21
-2.274800
31
0
0
LINE
8
PERFIL
10
-8.632383
20
-2.274800
30
0
11
-7.977655
21
-2.102266
31
0
0
LINE
8
PERFIL
10
-7.586729
20
-3.240994
30
0
11
-8.209374
21
-3.506983
31
0
0
LINE
8
PERFIL
10
-8.209374
20
-3.506983
30
0
11
-8.323971
21
-3.572353
31
0
0
LINE
8
PERFIL
10
-8.323971
20
-3.572353
30
0
11
-8.433453
21
-3.649504
31
0
0
LINE
8
PERFIL
10
-8.433453
20
-3.649504
30
0
11
-8.539377
21
-3.734597
31
0
0
LINE
8
PERFIL
10
-8.539377
20
-3.734597
30
0
11
-8.642227
21
-3.826307
31
0
0
LINE
8
PERFIL
10
-8.642227
20
-3.826307
30
0
11
-8.742239
21
-3.923884
31
0
0
LINE
8
PERFIL
10
-8.742239
20
-3.923884
30
0
11
-8.839542
21
-4.026828
31
0
0
LINE
8
PERFIL
10
-8.839542
20
-4.026828
30
0
11
-8.934209
21
-4.134778
31
0
0
LINE
8
PERFIL
10
-8.934209
20
-4.134778
30
0
11
-9.026272
21
-4.247454
31
0
0
LINE
8
PERFIL
10
-9.026272
20
-4.247454
30
0
11
-9.115745
21
-4.364629
31
0
0
LINE
8
PERFIL
10
-9.115745
20
-4.364629
30
0
11
-9.202623
21
-4.486116
31
0
0
LINE
8
PERFIL
10
-9.202623
20
-4.486116
30
0
11
-9.286889
21
-4.611754
31
0
0
LINE
8
PERFIL
10
-9.286889
20
-4.611754
30
0
11
-9.368517
21
-4.741401
31
0
0
LINE
8
PERFIL
10
-9.093435
20
-5.249708
30
0
11
-8.940252
21
-5.252282
31
0
0
LINE
8
PERFIL
10
-8.940252
20
-5.252282
30
0
11
-8.788984
21
-5.250454
31
0
0
LINE
8
PERFIL
10
-8.788984
20
-5.250454
30
0
11
-8.639761
21
-5.244170
31
0
0
LINE
8
PERFIL
10
-8.639761
20
-5.244170
30
0
11
-8.492729
21
-5.233355
31
0
0
LINE
8
PERFIL
10
-8.492729
20
-5.233355
30
0
11
-8.348047
21
-5.217911
31
0
0
LINE
8
PERFIL
10
-8.348047
20
-5.217911
30
0
11
-8.205897
21
-5.197702
31
0
0
LINE
8
PERFIL
10
-8.205897
20
-5.197702
30
0
11
-8.066495
21
-5.172548
31
0
0
LINE
8
PERFIL
10
-8.066495
20
-5.172548
30
0
11
-7.930106
21
-5.142191
31
0
0
LINE
8
PERFIL
10
-7.930106
20
-5.142191
30
0
11
-7.797076
21
-5.106249
31
0
0
LINE
8
PERFIL
10
-7.797076
20
-5.106249
30
0
11
-7.667904
21
-5.064115
31
0
0
LINE
8
PERFIL
10
-7.667904
20
-5.064115
30
0
11
-7.543435
21
-5.014658
31
0
0
LINE
8
PERFIL
10
-7.543435
20
-5.014658
30
0
11
-7.426031
21
-4.954475
31
0
0
LINE
8
PERFIL
10
-7.426031
20
-4.954475
30
0
11
-6.862799
21
-4.578700
31
0
0
LINE
8
PERFIL
10
-6.123310
20
-5.528795
30
0
11
-6.625852
21
-5.982544
31
0
0
LINE
8
PERFIL
10
-6.625852
20
-5.982544
30
0
11
-6.713014
21
-6.081582
31
0
0
LINE
8
PERFIL
10
-6.713014
20
-6.081582
30
0
11
-6.791514
21
-6.190101
31
0
0
LINE
8
PERFIL
10
-6.791514
20
-6.190101
30
0
11
-6.864068
21
-6.304977
31
0
0
LINE
8
PERFIL
10
-6.864068
20
-6.304977
30
0
11
-6.931567
21
-6.425114
31
0
0
LINE
8
PERFIL
10
-6.931567
20
-6.425114
30
0
11
-6.994477
21
-6.549877
31
0
0
LINE
8
PERFIL
10
-6.994477
20
-6.549877
30
0
11
-7.053083
21
-6.678838
31
0
0
LINE
8
PERFIL
10
-7.053083
20
-6.678838
30
0
11
-7.107568
21
-6.811678
31
0
0
LINE
8
PERFIL
10
-7.107568
20
-6.811678
30
0
11
-7.158058
21
-6.948141
31
0
0
LINE
8
PERFIL
10
-7.158058
20
-6.948141
30
0
11
-7.204636
21
-7.088019
31
0
0
LINE
8
PERFIL
10
-7.204636
20
-7.088019
30
0
11
-7.247360
21
-7.231133
31
0
0
LINE
8
PERFIL
10
-7.247360
20
-7.231133
30
0
11
-7.286265
21
-7.377324
31
0
0
LINE
8
PERFIL
10
-7.286265
20
-7.377324
30
0
11
-7.321375
21
-7.526451
31
0
0
LINE
8
PERFIL
10
-6.896150
20
-7.917898
30
0
11
-6.750432
21
-7.870594
31
0
0
LINE
8
PERFIL
10
-6.750432
20
-7.870594
30
0
11
-6.607953
21
-7.819748
31
0
0
LINE
8
PERFIL
10
-6.607953
20
-7.819748
30
0
11
-6.468856
21
-7.765353
31
0
0
LINE
8
PERFIL
10
-6.468856
20
-7.765353
30
0
11
-6.333302
21
-7.707382
31
0
0
LINE
8
PERFIL
10
-6.333302
20
-7.707382
30
0
11
-6.201474
21
-7.645796
31
0
0
LINE
8
PERFIL
10
-6.201474
20
-7.645796
30
0
11
-6.073588
21
-7.580527
31
0
0
LINE
8
PERFIL
10
-6.073588
20
-7.580527
30
0
11
-5.949907
21
-7.511472
31
0
0
LINE
8
PERFIL
10
-5.949907
20
-7.511472
30
0
11
-5.830764
21
-7.438474
31
0
0
LINE
8
PERFIL
10
-5.830764
20
-7.438474
30
0
11
-5.716612
21
-7.361285
31
0
0
LINE
8
PERFIL
10
-5.716612
20
-7.361285
30
0
11
-5.608120
21
-7.279492
31
0
0
LINE
8
PERFIL
10
-5.608120
20
-7.279492
30
0
11
-5.506454
21
-7.192299
31
0
0
LINE
8
PERFIL
10
-5.506454
20
-7.192299
30
0
11
-5.414952
21
-7.097256
31
0
0
LINE
8
PERFIL
10
-5.414952
20
-7.097256
30
0
11
-5.004252
21
-6.558960
31
0
0
LINE
8
PERFIL
10
-3.996336
20
-7.217465
30
0
11
-4.324316
21
-7.809804
31
0
0
LINE
8
PERFIL
10
-4.324316
20
-7.809804
30
0
11
-4.374598
21
-7.931777
31
0
0
LINE
8
PERFIL
10
-4.374598
20
-7.931777
30
0
11
-4.413608
21
-8.059905
31
0
0
LINE
8
PERFIL
10
-4.413608
20
-8.059905
30
0
11
-4.444931
21
-8.192116
31
0
0
LINE
8
PERFIL
10
-4.444931
20
-8.192116
30
0
11
-4.469765
21
-8.327659
31
0
0
LINE
8
PERFIL
10
-4.469765
20
-8.327659
30
0
11
-4.488755
21
-8.466090
31
0
0
LINE
8
PERFIL
10
-4.488755
20
-8.466090
30
0
11
-4.502312
21
-8.607093
31
0
0
LINE
8
PERFIL
10
-4.502312
20
-8.607093
30
0
11
-4.510712
21
-8.750426
31
0
0
LINE
8
PERFIL
10
-4.510712
20
-8.750426
30
0
11
-4.514157
21
-8.895889
31
0
0
LINE
8
PERFIL
10
-4.514157
20
-8.895889
30
0
11
-4.512793
21
-9.043312
31
0
0
LINE
8
PERFIL
10
-4.512793
20
-9.043312
30
0
11
-4.506733
21
-9.192544
31
0
0
LINE
8
PERFIL
10
-4.506733
20
-9.192544
30
0
11
-4.496062
21
-9.343447
31
0
0
LINE
8
PERFIL
10
-4.496062
20
-9.343447
30
0
11
-4.480848
21
-9.495894
31
0
0
LINE
8
PERFIL
10
-3.951560
20
-9.728061
30
0
11
-3.829097
21
-9.636005
31
0
0
LINE
8
PERFIL
10
-3.829097
20
-9.636005
30
0
11
-3.710847
21
-9.541652
31
0
0
LINE
8
PERFIL
10
-3.710847
20
-9.541652
30
0
11
-3.596950
21
-9.445039
31
0
0
LINE
8
PERFIL
10
-3.596950
20
-9.445039
30
0
11
-3.487563
21
-9.346195
31
0
0
LINE
8
PERFIL
10
-3.487563
20
-9.346195
30
0
11
-3.382875
21
-9.245141
31
0
0
LINE
8
PERFIL
10
-3.382875
20
-9.245141
30
0
11
-3.283111
21
-9.141884
31
0
0
LINE
8
PERFIL
10
-3.283111
20
-9.141884
30
0
11
-3.188553
21
-9.036411
31
0
0
LINE
8
PERFIL
10
-3.188553
20
-9.036411
30
0
11
-3.099569
21
-8.928683
31
0
0
LINE
8
PERFIL
10
-3.099569
20
-8.928683
30
0
11
-3.016665
21
-8.818611
31
0
0
LINE
8
PERFIL
10
-3.016665
20
-8.818611
30
0
11
-2.940610
21
-8.706022
31
0
0
LINE
8
PERFIL
10
-2.940610
20
-8.706022
30
0
11
-2.872763
21
-8.590543
31
0
0
LINE
8
PERFIL
10
-2.872763
20
-8.590543
30
0
11
-2.817080
21
-8.470939
31
0
0
LINE
8
PERFIL
10
-2.817080
20
-8.470939
30
0
11
-2.603417
21
-7.828456
31
0
0
LINE
8
PERFIL
10
-1.436296
20
-8.124011
30
0
11
-1.554174
21
-8.790751
31
0
0
LINE
8
PERFIL
10
-1.554174
20
-8.790751
30
0
11
-1.562127
21
-8.922441
31
0
0
LINE
8
PERFIL
10
-1.562127
20
-8.922441
30
0
11
-1.557420
21
-9.056293
31
0
0
LINE
8
PERFIL
10
-1.557420
20
-9.056293
30
0
11
-1.544117
21
-9.191511
31
0
0
LINE
8
PERFIL
10
-1.544117
20
-9.191511
30
0
11
-1.523594
21
-9.327774
31
0
0
LINE
8
PERFIL
10
-1.523594
20
-9.327774
30
0
11
-1.496607
21
-9.464870
31
0
0
LINE
8
PERFIL
10
-1.496607
20
-9.464870
30
0
11
-1.463646
21
-9.602635
31
0
0
LINE
8
PERFIL
10
-1.463646
20
-9.602635
30
0
11
-1.425051
21
-9.740929
31
0
0
LINE
8
PERFIL
10
-1.425051
20
-9.740929
30
0
11
-1.381077
21
-9.879630
31
0
0
LINE
8
PERFIL
10
-1.381077
20
-9.879630
30
0
11
-1.331919
21
-10.018622
31
0
0
LINE
8
PERFIL
10
-1.331919
20
-10.018622
30
0
11
-1.277731
21
-10.157800
31
0
0
LINE
8
PERFIL
10
-1.277731
20
-10.157800
30
0
11
-1.218641
21
-10.297062
31
0
0
LINE
8
PERFIL
10
-1.218641
20
-10.297062
30
0
11
-1.154752
21
-10.436309
31
0
0
LINE
8
PERFIL
10
-0.578758
20
-10.484037
30
0
11
-0.492820
21
-10.357205
31
0
0
LINE
8
PERFIL
10
-0.492820
20
-10.357205
30
0
11
-0.411614
21
-10.229569
31
0
0
LINE
8
PERFIL
10
-0.411614
20
-10.229569
30
0
11
-0.335258
21
-10.101208
31
0
0
LINE
8
PERFIL
10
-0.335258
20
-10.101208
30
0
11
-0.263893
21
-9.972202
31
0
0
LINE
8
PERFIL
10
-0.263893
20
-9.972202
30
0
11
-0.197689
21
-9.842632
31
0
0
LINE
8
PERFIL
10
-0.197689
20
-9.842632
30
0
11
-0.136858
21
-9.712576
31
0
0
LINE
8
PERFIL
10
-0.136858
20
-9.712576
30
0
11
-0.081671
21
-9.582115
31
0
0
LINE
8
PERFIL
10
-0.081671
20
-9.582115
30
0
11
-0.032487
21
-9.451331
31
0
0
LINE
8
PERFIL
10
-0.032487
20
-9.451331
30
0
11
0.010184
21
-9.320304
31
0
0
LINE
8
PERFIL
10
0.010184
20
-9.320304
30
0
11
0.045562
21
-9.189120
31
0
0
LINE
8
PERFIL
10
0.045562
20
-9.189120
30
0
11
0.072236
21
-9.057869
31
0
0
LINE
8
PERFIL
10
0.072236
20
-9.057869
30
0
11
0.086067
21
-8.926665
31
0
0
LINE
8
PERFIL
10
0.086067
20
-8.926665
30
0
11
0.079539
21
-8.249617
31
0
0
LINE
8
PERFIL
10
1.279388
20
-8.150194
30
0
11
1.384388
21
-8.819083
31
0
0
LINE
8
PERFIL
10
1.384388
20
-8.819083
30
0
11
1.419626
21
-8.946221
31
0
0
LINE
8
PERFIL
10
1.419626
20
-8.946221
30
0
11
1.467539
21
-9.071292
31
0
0
LINE
8
PERFIL
10
1.467539
20
-9.071292
30
0
11
1.524026
21
-9.194864
31
0
0
LINE
8
PERFIL
10
1.524026
20
-9.194864
30
0
11
1.587682
21
-9.317080
31
0
0
LINE
8
PERFIL
10
1.587682
20
-9.317080
30
0
11
1.657721
21
-9.437985
31
0
0
LINE
8
PERFIL
10
1.657721
20
-9.437985
30
0
11
1.733629
21
-9.557583
31
0
0
LINE
8
PERFIL
10
1.733629
20
-9.557583
30
0
11
1.815037
21
-9.675852
31
0
0
LINE
8
PERFIL
10
1.815037
20
-9.675852
30
0
11
1.901664
21
-9.792759
31
0
0
LINE
8
PERFIL
10
1.901664
20
-9.792759
30
0
11
1.993290
21
-9.908259
31
0
0
LINE
8
PERFIL
10
1.993290
20
-9.908259
30
0
11
2.089732
21
-10.022301
31
0
0
LINE
8
PERFIL
10
2.089732
20
-10.022301
30
0
11
2.190839
21
-10.134831
31
0
0
LINE
8
PERFIL
10
2.190839
20
-10.134831
30
0
11
2.296480
21
-10.245788
31
0
0
LINE
8
PERFIL
10
2.856762
20
-10.103906
30
0
11
2.896861
21
-9.956042
31
0
0
LINE
8
PERFIL
10
2.896861
20
-9.956042
30
0
11
2.932224
21
-9.808953
31
0
0
LINE
8
PERFIL
10
2.932224
20
-9.808953
30
0
11
2.962764
21
-9.662755
31
0
0
LINE
8
PERFIL
10
2.962764
20
-9.662755
30
0
11
2.988374
21
-9.517567
31
0
0
LINE
8
PERFIL
10
2.988374
20
-9.517567
30
0
11
3.008919
21
-9.373520
31
0
0
LINE
8
PERFIL
10
3.008919
20
-9.373520
30
0
11
3.024225
21
-9.230759
31
0
0
LINE
8
PERFIL
10
3.024225
20
-9.230759
30
0
11
3.034062
21
-9.089448
31
0
0
LINE
8
PERFIL
10
3.034062
20
-9.089448
30
0
11
3.038115
21
-8.949780
31
0
0
LINE
8
PERFIL
10
3.038115
20
-8.949780
30
0
11
3.035930
21
-8.811998
31
0
0
LINE
8
PERFIL
10
3.035930
20
-8.811998
30
0
11
3.026795
21
-8.676435
31
0
0
LINE
8
PERFIL
10
3.026795
20
-8.676435
30
0
11
3.009407
21
-8.543633
31
0
0
LINE
8
PERFIL
10
3.009407
20
-8.543633
30
0
11
2.979887
21
-8.415048
31
0
0
LINE
8
PERFIL
10
2.979887
20
-8.415048
30
0
11
2.753875
21
-7.776803
31
0
0
LINE
8
PERFIL
10
3.856431
20
-7.293178
30
0
11
4.172930
21
-7.891731
31
0
0
LINE
8
PERFIL
10
4.172930
20
-7.891731
30
0
11
4.247539
21
-8.000538
31
0
0
LINE
8
PERFIL
10
4.247539
20
-8.000538
30
0
11
4.333468
21
-8.103275
31
0
0
LINE
8
PERFIL
10
4.333468
20
-8.103275
30
0
11
4.427018
21
-8.201810
31
0
0
LINE
8
PERFIL
10
4.427018
20
-8.201810
30
0
11
4.526908
21
-8.296735
31
0
0
LINE
8
PERFIL
10
4.526908
20
-8.296735
30
0
11
4.632410
21
-8.388348
31
0
0
LINE
8
PERFIL
10
4.632410
20
-8.388348
30
0
11
4.743038
21
-8.476818
31
0
0
LINE
8
PERFIL
10
4.743038
20
-8.476818
30
0
11
4.858437
21
-8.562246
31
0
0
LINE
8
PERFIL
10
4.858437
20
-8.562246
30
0
11
4.978330
21
-8.644691
31
0
0
LINE
8
PERFIL
10
4.978330
20
-8.644691
30
0
11
5.102494
21
-8.724182
31
0
0
LINE
8
PERFIL
10
5.102494
20
-8.724182
30
0
11
5.230740
21
-8.800731
31
0
0
LINE
8
PERFIL
10
5.230740
20
-8.800731
30
0
11
5.362907
21
-8.874333
31
0
0
LINE
8
PERFIL
10
5.362907
20
-8.874333
30
0
11
5.498852
21
-8.944977
31
0
0
LINE
8
PERFIL
10
5.982708
20
-8.628859
30
0
11
5.972622
21
-8.475987
31
0
0
LINE
8
PERFIL
10
5.972622
20
-8.475987
30
0
11
5.958310
21
-8.325386
31
0
0
LINE
8
PERFIL
10
5.958310
20
-8.325386
30
0
11
5.939725
21
-8.177192
31
0
0
LINE
8
PERFIL
10
5.939725
20
-8.177192
30
0
11
5.916805
21
-8.031555
31
0
0
LINE
8
PERFIL
10
5.916805
20
-8.031555
30
0
11
5.889465
21
-7.888642
31
0
0
LINE
8
PERFIL
10
5.889465
20
-7.888642
30
0
11
5.857587
21
-7.748647
31
0
0
LINE
8
PERFIL
10
5.857587
20
-7.748647
30
0
11
5.821007
21
-7.611799
31
0
0
LINE
8
PERFIL
10
5.821007
20
-7.611799
30
0
11
5.779491
21
-7.478382
31
0
0
LINE
8
PERFIL
10
5.779491
20
-7.478382
30
0
11
5.732686
21
-7.348774
31
0
0
LINE
8
PERFIL
10
5.732686
20
-7.348774
30
0
11
5.680029
21
-7.223523
31
0
0
LINE
8
PERFIL
10
5.680029
20
-7.223523
30
0
11
5.620462
21
-7.103563
31
0
0
LINE
8
PERFIL
10
5.620462
20
-7.103563
30
0
11
5.550790
21
-6.991530
31
0
0
LINE
8
PERFIL
10
5.550790
20
-6.991530
30
0
11
5.129787
21
-6.461253
31
0
0
LINE
8
PERFIL
10
6.015570
20
-5.645832
30
0
11
6.509270
21
-6.109187
31
0
0
LINE
8
PERFIL
10
6.509270
20
-6.109187
30
0
11
6.615166
21
-6.187873
31
0
0
LINE
8
PERFIL
10
6.615166
20
-6.187873
30
0
11
6.729798
21
-6.257143
31
0
0
LINE
8
PERFIL
10
6.729798
20
-6.257143
30
0
11
6.850273
21
-6.319963
31
0
0
LINE
8
PERFIL
10
6.850273
20
-6.319963
30
0
11
6.975573
21
-6.377311
31
0
0
LINE
8
PERFIL
10
6.975573
20
-6.377311
30
0
11
7.105105
21
-6.429703
31
0
0
LINE
8
PERFIL
10
7.105105
20
-6.429703
30
0
11
7.238466
21
-6.477459
31
0
0
LINE
8
PERFIL
10
7.238466
20
-6.477459
30
0
11
7.375351
21
-6.520788
31
0
0
LINE
8
PERFIL
10
7.375351
20
-6.520788
30
0
11
7.515517
21
-6.559837
31
0
0
LINE
8
PERFIL
10
7.515517
20
-6.559837
30
0
11
7.658764
21
-6.594705
31
0
0
LINE
8
PERFIL
10
7.658764
20
-6.594705
30
0
11
7.804917
21
-6.625464
31
0
0
LINE
8
PERFIL
10
7.804917
20
-6.625464
30
0
11
7.953822
21
-6.652164
31
0
0
LINE
8
PERFIL
10
7.953822
20
-6.652164
30
0
11
8.105339
21
-6.674839
31
0
0
LINE
8
PERFIL
10
8.460334
20
-6.218741
30
0
11
8.401158
21
-6.077427
31
0
0
LINE
8
PERFIL
10
8.401158
20
-6.077427
30
0
11
8.338720
21
-5.939633
31
0
0
LINE
8
PERFIL
10
8.338720
20
-5.939633
30
0
11
8.273024
21
-5.805504
31
0
0
LINE
8
PERFIL
10
8.273024
20
-5.805504
30
0
11
8.204058
21
-5.675200
31
0
0
LINE
8
PERFIL
10
8.204058
20
-5.675200
30
0
11
8.131795
21
-5.548908
31
0
0
LINE
8
PERFIL
10
8.131795
20
-5.548908
30
0
11
8.056188
21
-5.426849
31
0
0
LINE
8
PERFIL
10
8.056188
20
-5.426849
30
0
11
7.977156
21
-5.309292
31
0
0
LINE
8
PERFIL
10
7.977156
20
-5.309292
30
0
11
7.894569
21
-5.196585
31
0
0
LINE
8
PERFIL
10
7.894569
20
-5.196585
30
0
11
7.808217
21
-5.089197
31
0
0
LINE
8
PERFIL
10
7.808217
20
-5.089197
30
0
11
7.717743
21
-4.987830
31
0
0
LINE
8
PERFIL
10
7.717743
20
-4.987830
30
0
11
7.622453
21
-4.893711
31
0
0
LINE
8
PERFIL
10
7.622453
20
-4.893711
30
0
11
7.520179
21
-4.810371
31
0
0
LINE
8
PERFIL
10
7.520179
20
-4.810371
30
0
11
6.949806
21
-4.445525
31
0
0
LINE
8
PERFIL
10
7.522828
20
-3.386673
30
0
11
8.140229
21
-3.664618
31
0
0
LINE
8
PERFIL
10
8.140229
20
-3.664618
30
0
11
8.265938
21
-3.704656
31
0
0
LINE
8
PERFIL
10
8.265938
20
-3.704656
30
0
11
8.396849
21
-3.732952
31
0
0
LINE
8
PERFIL
10
8.396849
20
-3.732952
30
0
11
8.531195
21
-3.753250
31
0
0
LINE
8
PERFIL
10
8.531195
20
-3.753250
30
0
11
8.668327
21
-3.766806
31
0
0
LINE
8
PERFIL
10
8.668327
20
-3.766806
30
0
11
8.807852
21
-3.774300
31
0
0
LINE
8
PERFIL
10
8.807852
20
-3.774300
30
0
11
8.949493
21
-3.776166
31
0
0
LINE
8
PERFIL
10
8.949493
20
-3.776166
30
0
11
9.093030
21
-3.772702
31
0
0
LINE
8
PERFIL
10
9.093030
20
-3.772702
30
0
11
9.238281
21
-3.764122
31
0
0
LINE
8
PERFIL
10
9.238281
20
-3.764122
30
0
11
9.385088
21
-3.750589
31
0
0
LINE
8
PERFIL
10
9.385088
20
-3.750589
30
0
11
9.533310
21
-3.732226
31
0
0
LINE
8
PERFIL
10
9.533310
20
-3.732226
30
0
11
9.682816
21
-3.709130
31
0
0
LINE
8
PERFIL
10
9.682816
20
-3.709130
30
0
11
9.833486
21
-3.681379
31
0
0
LINE
8
PERFIL
10
10.021152
20
-3.134727
30
0
11
9.919297
21
-3.020284
31
0
0
LINE
8
PERFIL
10
9.919297
20
-3.020284
30
0
11
9.815501
21
-2.910230
31
0
0
LINE
8
PERFIL
10
9.815501
20
-2.910230
30
0
11
9.709813
21
-2.804699
31
0
0
LINE
8
PERFIL
10
9.709813
20
-2.804699
30
0
11
9.602274
21
-2.703849
31
0
0
LINE
8
PERFIL
10
9.602274
20
-2.703849
30
0
11
9.492920
21
-2.607863
31
0
0
LINE
8
PERFIL
10
9.492920
20
-2.607863
30
0
11
9.381777
21
-2.516967
31
0
0
LINE
8
PERFIL
10
9.381777
20
-2.516967
30
0
11
9.268856
21
-2.431442
31
0
0
LINE
8
PERFIL
10
9.268856
20
-2.431442
30
0
11
9.154147
21
-2.351658
31
0
0
LINE
8
PERFIL
10
9.154147
20
-2.351658
30
0
11
9.037606
21
-2.278127
31
0
0
LINE
8
PERFIL
10
9.037606
20
-2.278127
30
0
11
8.919120
21
-2.211628
31
0
0
LINE
8
PERFIL
10
8.919120
20
-2.211628
30
0
11
8.798433
21
-2.153550
31
0
0
LINE
8
PERFIL
10
8.798433
20
-2.153550
30
0
11
8.674640
21
-2.107934
31
0
0
LINE
8
PERFIL
10
8.674640
20
-2.107934
30
0
11
8.016706
21
-1.948056
31
0
0
ARC
8
PERFIL
10
0
20
0
30
0
40
10.500000
50
358.422890
51
1.577110
0
ARC
8
PERFIL
10
0
20
0
30
0
40
8.250000
50
5.289244
51
13.658125
0
ARC
8
PERFIL
10
0
20
0
30
0
40
10.500000
50
17.370259
51
20.524478
0
ARC
8
PERFIL
10
0
20
0
30
0
40
8.250000
50
24.236612
51
32.605493
0
ARC
8
PERFIL
10
0
20
0
30
0
40
10.500000
50
36.317627
51
39.471847
0
ARC
8
PERFIL
10
0
20
0
30
0
40
8.250000
50
43.183981
51
51.552862
0
ARC
8
PERFIL
10
0
20
0
30
0
40
10.500000
50
55.264995
51
58.419215
0
ARC
8
PERFIL
10
0
20
0
30
0
40
8.250000
50
62.131349
51
70.500230
0
ARC
8
PERFIL
10
0
20
0
30
0
40
10.500000
50
74.212364
51
77.366584
0
ARC
8
PERFIL
10
0
20
0
30
0
40
8.250000
50
81.078717
51
89.447598
0
ARC
8
PERFIL
10
0
20
0
30
0
40
10.500000
50
93.159732
51
96.313952
0
ARC
8
PERFIL
10
0
20
0
30
0
40
8.250000
50
100.026086
51
108.394967
0
ARC
8
PERFIL
10
0
20
0
30
0
40
10.500000
50
112.107101
51
115.261320
0
ARC
8
PERFIL
10
0
20
0
30
0
40
8.250000
50
118.973454
51
127.342335
0
ARC
8
PERFIL
10
0
20
0
30
0
40
10.500000
50
131.054469
51
134.208689
0
ARC
8
PERFIL
10
0
20
0
30
0
40
8.250000
50
137.920823
51
146.289704
0
ARC
8
PERFIL
10
0
20
0
30
0
40
10.500000
50
150.001837
51
153.156057
0
ARC
8
PERFIL
10
0
20
0
30
0
40
8.250000
50
156.868191
51
165.237072
0
ARC
8
PERFIL
10
0
20
0
30
0
40
10.500000
50
168.949206
51
172.103426
0
ARC
8
PERFIL
10
0
20
0
30
0
40
8.250000
50
175.815559
51
184.184441
0
ARC
8
PERFIL
10
0
20
0
30
0
40
10.500000
50
187.896574
51
191.050794
0
ARC
8
PERFIL
10
0
20
0
30
0
40
8.250000
50
194.762928
51
203.131809
0
ARC
8
PERFIL
10
0
20
0
30
0
40
10.500000
50
206.843943
51
209.998163
0
ARC
8
PERFIL
10
0
20
0
30
0
40
8.250000
50
213.710296
51
222.079177
0
ARC
8
PERFIL
10
0
20
0
30
0
40
10.500000
50
225.791311
51
228.945531
0
ARC
8
PERFIL
10
0
20
0
30
0
40
8.250000
50
232.657665
51
241.026546
0
ARC
8
PERFIL
10
0
20
0
30
0
40
10.500000
50
244.738680
51
247.892899
0
ARC
8
PERFIL
10
0
20
0
30
0
40
8.250000
50
251.605033
51
259.973914
0
ARC
8
PERFIL
10
0
20
0
30
0
40
10.500000
50
263.686048
51
266.840268
0
ARC
8
PERFIL
10
0
20
0
30
0
40
8.250000
50
270.552402
51
278.921283
0
ARC
8
PERFIL
10
0
20
0
30
0
40
10.500000
50
282.633416
51
285.787636
0
ARC
8
PERFIL
10
0
20
0
30
0
40
8.250000
50
289.499770
51
297.868651
0
ARC
8
PERFIL
10
0
20
0
30
0
40
10.500000
50
301.580785
51
304.735005
0
ARC
8
PERFIL
10
0
20
0
30
0
40
8.250000
50
308.447138
51
316.816019
0
ARC
8
PERFIL
10
0
20
0
30
0
40
10.500000
50
320.528153
51
323.682373
0
ARC
8
PERFIL
10
0
20
0
30
0
40
8.250000
50
327.394507
51
335.763388
0
ARC
8
PERFIL
10
0
20
0
30
0
40
10.500000
50
339.475522
51
342.629741
0
ARC
8
PERFIL
10
0
20
0
30
0
40
8.250000
50
346.341875
51
354.710756
0
ENDSEC
0
EOF
