0
SECTION
2
HEADER
9
$ACADVER
1
AC1009
0
ENDSEC
0
SECTION
2
ENTITIES
0
LINE
8
PERFIL
10
5.708676
20
-0.688124
30
0
11
6.530575
21
-0.787196
31
0
0
LINE
8
PERFIL
10
6.530575
20
-0.787196
30
0
11
6.650032
21
-0.786340
31
0
0
LINE
8
PERFIL
10
6.650032
20
-0.786340
30
0
11
6.770937
21
-0.772603
31
0
0
LINE
8
PERFIL
10
6.770937
20
-0.772603
30
0
11
6.892697
21
-0.750051
31
0
0
LINE
8
PERFIL
10
6.892697
20
-0.750051
30
0
11
7.015042
21
-0.720045
31
0
0
LINE
8
PERFIL
10
7.015042
20
-0.720045
30
0
11
7.137777
21
-0.683329
31
0
0
LINE
8
PERFIL
10
7.137777
20
-0.683329
30
0
11
7.260739
21
-0.640381
31
0
0
LINE
8
PERFIL
10
7.260739
20
-0.640381
30
0
11
7.383780
21
-0.591534
31
0
0
LINE
8
PERFIL
10
7.383780
20
-0.591534
30
0
11
7.506764
21
-0.537035
31
0
0
LINE
8
PERFIL
10
7.506764
20
-0.537035
30
0
11
7.629561
21
-0.477073
31
0
0
LINE
8
PERFIL
10
7.629561
20
-0.477073
30
0
11
7.752045
21
-0.411800
31
0
0
LINE
8
PERFIL
10
7.752045
20
-0.411800
30
0
11
7.874092
21
-0.341341
31
0
0
LINE
8
PERFIL
10
7.874092
20
-0.341341
30
0
11
7.995583
21
-0.265799
31
0
0
LINE
8
PERFIL
10
7.995583
20
0.265799
30
0
11
7.874092
21
0.341341
31
0
0
LINE
8
PERFIL
10
7.874092
20
0.341341
30
0
11
7.752045
21
0.411800
31
0
0
LINE
8
PERFIL
10
7.752045
20
0.411800
30
0
11
7.629561
21
0.477073
31
0
0
LINE
8
PERFIL
10
7.629561
20
0.477073
30
0
11
7.506764
21
0.537035
31
0
0
LINE
8
PERFIL
10
7.506764
20
0.537035
30
0
11
7.383780
21
0.591534
31
0
0
LINE
8
PERFIL
10
7.383780
20
0.591534
30
0
11
7.260739
21
0.640381
31
0
0
LINE
8
PERFIL
10
7.260739
20
0.640381
30
0
11
7.137777
21
0.683329
31
0
0
LINE
8
PERFIL
10
7.137777
20
0.683329
30
0
11
7.015042
21
0.720045
31
0
0
LINE
8
PERFIL
10
7.015042
20
0.720045
30
0
11
6.892697
21
0.750051
31
0
0
LINE
8
PERFIL
10
6.892697
20
0.750051
30
0
11
6.770937
21
0.772603
31
0
0
LINE
8
PERFIL
10
6.770937
20
0.772603
30
0
11
6.650032
21
0.786340
31
0
0
LINE
8
PERFIL
10
6.650032
20
0.786340
30
0
11
6.530575
21
0.787196
31
0
0
LINE
8
PERFIL
10
6.530575
20
0.787196
30
0
11
5.708676
21
0.688124
31
0
0
LINE
8
PERFIL
10
5.441905
20
1.856923
30
0
11
6.225396
21
2.124271
31
0
0
LINE
8
PERFIL
10
6.225396
20
2.124271
30
0
11
6.332651
21
2.176873
31
0
0
LINE
8
PERFIL
10
6.332651
20
2.176873
30
0
11
6.435623
21
2.241708
31
0
0
LINE
8
PERFIL
10
6.435623
20
2.241708
30
0
11
6.535540
21
2.314857
31
0
0
LINE
8
PERFIL
10
6.535540
20
2.314857
30
0
11
6.632750
21
2.394975
31
0
0
LINE
8
PERFIL
10
6.632750
20
2.394975
30
0
11
6.727400
21
2.481307
31
0
0
LINE
8
PERFIL
10
6.727400
20
2.481307
30
0
11
6.819551
21
2.573353
31
0
0
LINE
8
PERFIL
10
6.819551
20
2.573353
30
0
11
6.909213
21
2.670748
31
0
0
LINE
8
PERFIL
10
6.909213
20
2.670748
30
0
11
6.996372
21
2.773211
31
0
0
LINE
8
PERFIL
10
6.996372
20
2.773211
30
0
11
7.080991
21
2.880515
31
0
0
LINE
8
PERFIL
10
7.080991
20
2.880515
30
0
11
7.163024
21
2.992467
31
0
0
LINE
8
PERFIL
10
7.163024
20
2.992467
30
0
11
7.242414
21
3.108903
31
0
0
LINE
8
PERFIL
10
7.242414
20
3.108903
30
0
11
7.319097
21
3.229677
31
0
0
LINE
8
PERFIL
10
7.088446
20
3.708630
30
0
11
6.946210
21
3.723978
31
0
0
LINE
8
PERFIL
10
6.946210
20
3.723978
30
0
11
6.805678
21
3.734505
31
0
0
LINE
8
PERFIL
10
6.805678
20
3.734505
30
0
11
6.667003
21
3.740170
31
0
0
LINE
8
PERFIL
10
6.667003
20
3.740170
30
0
11
6.530350
21
3.740915
31
0
0
LINE
8
PERFIL
10
6.530350
20
3.740915
30
0
11
6.395899
21
3.736656
31
0
0
LINE
8
PERFIL
10
6.395899
20
3.736656
30
0
11
6.263849
21
3.727280
31
0
0
LINE
8
PERFIL
10
6.263849
20
3.727280
30
0
11
6.134430
21
3.712624
31
0
0
LINE
8
PERFIL
10
6.134430
20
3.712624
30
0
11
6.007919
21
3.692450
31
0
0
LINE
8
PERFIL
10
6.007919
20
3.692450
30
0
11
5.884670
21
3.666401
31
0
0
LINE
8
PERFIL
10
5.884670
20
3.666401
30
0
11
5.765184
21
3.633891
31
0
0
LINE
8
PERFIL
10
5.765184
20
3.633891
30
0
11
5.650291
21
3.593808
31
0
0
LINE
8
PERFIL
10
5.650291
20
3.593808
30
0
11
5.542293
21
3.542749
31
0
0
LINE
8
PERFIL
10
5.542293
20
3.542749
30
0
11
4.844774
21
3.096880
31
0
0
LINE
8
PERFIL
10
4.097299
20
4.034185
30
0
11
4.687201
21
4.615001
31
0
0
LINE
8
PERFIL
10
4.687201
20
4.615001
30
0
11
4.761012
21
4.708929
31
0
0
LINE
8
PERFIL
10
4.761012
20
4.708929
30
0
11
4.825655
21
4.812022
31
0
0
LINE
8
PERFIL
10
4.825655
20
4.812022
30
0
11
4.883939
21
4.921278
31
0
0
LINE
8
PERFIL
10
4.883939
20
4.921278
30
0
11
4.936761
21
5.035640
31
0
0
LINE
8
PERFIL
10
4.936761
20
5.035640
30
0
11
4.984579
21
5.154490
31
0
0
LINE
8
PERFIL
10
4.984579
20
5.154490
30
0
11
5.027667
21
5.277403
31
0
0
LINE
8
PERFIL
10
5.027667
20
5.277403
30
0
11
5.066192
21
5.404056
31
0
0
LINE
8
PERFIL
10
5.066192
20
5.404056
30
0
11
5.100262
21
5.534189
31
0
0
LINE
8
PERFIL
10
5.100262
20
5.534189
30
0
11
5.129944
21
5.667581
31
0
0
LINE
8
PERFIL
10
5.129944
20
5.667581
30
0
11
5.155279
21
5.804039
31
0
0
LINE
8
PERFIL
10
5.155279
20
5.804039
30
0
11
5.176287
21
5.943391
31
0
0
LINE
8
PERFIL
10
5.176287
20
5.943391
30
0
11
5.192974
21
6.085476
31
0
0
LINE
8
PERFIL
10
4.777355
20
6.416921
30
0
11
4.642545
21
6.369036
31
0
0
LINE
8
PERFIL
10
4.642545
20
6.369036
30
0
11
4.511362
21
6.317546
31
0
0
LINE
8
PERFIL
10
4.511362
20
6.317546
30
0
11
4.383963
21
6.262481
31
0
0
LINE
8
PERFIL
10
4.383963
20
6.262481
30
0
11
4.260520
21
6.203860
31
0
0
LINE
8
PERFIL
10
4.260520
20
6.203860
30
0
11
4.141231
21
6.141687
31
0
0
LINE
8
PERFIL
10
4.141231
20
6.141687
30
0
11
4.026326
21
6.075945
31
0
0
LINE
8
PERFIL
10
4.026326
20
6.075945
30
0
11
3.916083
21
6.006588
31
0
0
LINE
8
PERFIL
10
3.916083
20
6.006588
30
0
11
3.810854
21
5.933521
31
0
0
LINE
8
PERFIL
10
3.810854
20
5.933521
30
0
11
3.711113
21
5.856576
31
0
0
LINE
8
PERFIL
10
3.711113
20
5.856576
30
0
11
3.617565
21
5.775442
31
0
0
LINE
8
PERFIL
10
3.617565
20
5.775442
30
0
11
3.531442
21
5.689479
31
0
0
LINE
8
PERFIL
10
3.531442
20
5.689479
30
0
11
3.456293
21
5.596618
31
0
0
LINE
8
PERFIL
10
3.456293
20
5.596618
30
0
11
3.021304
21
4.892261
31
0
0
LINE
8
PERFIL
10
1.941171
20
5.412426
30
0
11
2.220649
21
6.191672
31
0
0
LINE
8
PERFIL
10
2.220649
20
6.191672
30
0
11
2.246396
21
6.308324
31
0
0
LINE
8
PERFIL
10
2.246396
20
6.308324
30
0
11
2.259907
21
6.429255
31
0
0
LINE
8
PERFIL
10
2.259907
20
6.429255
30
0
11
2.265015
21
6.552980
31
0
0
LINE
8
PERFIL
10
2.265015
20
6.552980
30
0
11
2.262985
21
6.678935
31
0
0
LINE
8
PERFIL
10
2.262985
20
6.678935
30
0
11
2.254501
21
6.806763
31
0
0
LINE
8
PERFIL
10
2.254501
20
6.806763
30
0
11
2.239992
21
6.936199
31
0
0
LINE
8
PERFIL
10
2.239992
20
6.936199
30
0
11
2.219749
21
7.067024
31
0
0
LINE
8
PERFIL
10
2.219749
20
7.067024
30
0
11
2.193982
21
7.199052
31
0
0
LINE
8
PERFIL
10
2.193982
20
7.199052
30
0
11
2.162849
21
7.332113
31
0
0
LINE
8
PERFIL
10
2.162849
20
7.332113
30
0
11
2.126468
21
7.466051
31
0
0
LINE
8
PERFIL
10
2.126468
20
7.466051
30
0
11
2.084933
21
7.600717
31
0
0
LINE
8
PERFIL
10
2.084933
20
7.600717
30
0
11
2.038319
21
7.735971
31
0
0
LINE
8
PERFIL
10
1.520050
20
7.854263
30
0
11
1.419368
21
7.752628
31
0
0
LINE
8
PERFIL
10
1.419368
20
7.752628
30
0
11
1.323517
21
7.649319
31
0
0
LINE
8
PERFIL
10
1.323517
20
7.649319
30
0
11
1.232625
21
7.544431
31
0
0
LINE
8
PERFIL
10
1.232625
20
7.544431
30
0
11
1.146842
21
7.438055
31
0
0
LINE
8
PERFIL
10
1.146842
20
7.438055
30
0
11
1.066342
21
7.330282
31
0
0
LINE
8
PERFIL
10
1.066342
20
7.330282
30
0
11
0.991341
21
7.221195
31
0
0
LINE
8
PERFIL
10
0.991341
20
7.221195
30
0
11
0.922108
21
7.110873
31
0
0
LINE
8
PERFIL
10
0.922108
20
7.110873
30
0
11
0.859002
21
6.999385
31
0
0
LINE
8
PERFIL
10
0.859002
20
6.999385
30
0
11
0.802524
21
6.886784
31
0
0
LINE
8
PERFIL
10
0.802524
20
6.886784
30
0
11
0.753443
21
6.773096
31
0
0
LINE
8
PERFIL
10
0.753443
20
6.773096
30
0
11
0.713147
21
6.658278
31
0
0
LINE
8
PERFIL
10
0.713147
20
6.658278
30
0
11
0.685731
21
6.542008
31
0
0
LINE
8
PERFIL
10
0.685731
20
6.542008
30
0
11
0.599429
21
5.718670
31
0
0
LINE
8
PERFIL
10
-0.599429
20
5.718670
30
0
11
-0.685731
21
6.542008
31
0
0
LINE
8
PERFIL
10
-0.685731
20
6.542008
30
0
11
-0.713147
21
6.658278
31
0
0
LINE
8
PERFIL
10
-0.713147
20
6.658278
30
0
11
-0.753443
21
6.773096
31
0
0
LINE
8
PERFIL
10
-0.753443
20
6.773096
30
0
11
-0.802524
21
6.886784
31
0
0
LINE
8
PERFIL
10
-0.802524
20
6.886784
30
0
11
-0.859002
21
6.999385
31
0
0
LINE
8
PERFIL
10
-0.859002
20
6.999385
30
0
11
-0.922108
21
7.110873
31
0
0
LINE
8
PERFIL
10
-0.922108
20
7.110873
30
0
11
-0.991341
21
7.221195
31
0
0
LINE
8
PERFIL
10
-0.991341
20
7.221195
30
0
11
-1.066342
21
7.330282
31
0
0
LINE
8
PERFIL
10
-1.066342
20
7.330282
30
0
11
-1.146842
21
7.438055
31
0
0
LINE
8
PERFIL
10
-1.146842
20
7.438055
30
0
11
-1.232625
21
7.544431
31
0
0
LINE
8
PERFIL
10
-1.232625
20
7.544431
30
0
11
-1.323517
21
7.649319
31
0
0
LINE
8
PERFIL
10
-1.323517
20
7.649319
30
0
11
-1.419368
21
7.752628
31
0
0
LINE
8
PERFIL
10
-1.419368
20
7.752628
30
0
11
-1.520050
21
7.854263
31
0
0
LINE
8
PERFIL
10
-2.038319
20
7.735971
30
0
11
-2.084933
21
7.600717
31
0
0
LINE
8
PERFIL
10
-2.084933
20
7.600717
30
0
11
-2.126468
21
7.466051
31
0
0
LINE
8
PERFIL
10
-2.126468
20
7.466051
30
0
11
-2.162849
21
7.332113
31
0
0
LINE
8
PERFIL
10
-2.162849
20
7.332113
30
0
11
-2.193982
21
7.199052
31
0
0
LINE
8
PERFIL
10
-2.193982
20
7.199052
30
0
11
-2.219749
21
7.067024
31
0
0
LINE
8
PERFIL
10
-2.219749
20
7.067024
30
0
11
-2.239992
21
6.936199
31
0
0
LINE
8
PERFIL
10
-2.239992
20
6.936199
30
0
11
-2.254501
21
6.806763
31
0
0
LINE
8
PERFIL
10
-2.254501
20
6.806763
30
0
11
-2.262985
21
6.678935
31
0
0
LINE
8
PERFIL
10
-2.262985
20
6.678935
30
0
11
-2.265015
21
6.552980
31
0
0
LINE
8
PERFIL
10
-2.265015
20
6.552980
30
0
11
-2.259907
21
6.429255
31
0
0
LINE
8
PERFIL
10
-2.259907
20
6.429255
30
0
11
-2.246396
21
6.308324
31
0
0
LINE
8
PERFIL
10
-2.246396
20
6.308324
30
0
11
-2.220649
21
6.191672
31
0
0
LINE
8
PERFIL
10
-2.220649
20
6.191672
30
0
11
-1.941171
21
5.412426
31
0
0
LINE
8
PERFIL
10
-3.021304
20
4.892261
30
0
11
-3.456293
21
5.596618
31
0
0
LINE
8
PERFIL
10
-3.456293
20
5.596618
30
0
11
-3.531442
21
5.689479
31
0
0
LINE
8
PERFIL
10
-3.531442
20
5.689479
30
0
11
-3.617565
21
5.775442
31
0
0
LINE
8
PERFIL
10
-3.617565
20
5.775442
30
0
11
-3.711113
21
5.856576
31
0
0
LINE
8
PERFIL
10
-3.711113
20
5.856576
30
0
11
-3.810854
21
5.933521
31
0
0
LINE
8
PERFIL
10
-3.810854
20
5.933521
30
0
11
-3.916083
21
6.006588
31
0
0
LINE
8
PERFIL
10
-3.916083
20
6.006588
30
0
11
-4.026326
21
6.075945
31
0
0
LINE
8
PERFIL
10
-4.026326
20
6.075945
30
0
11
-4.141231
21
6.141687
31
0
0
LINE
8
PERFIL
10
-4.141231
20
6.141687
30
0
11
-4.260520
21
6.203860
31
0
0
LINE
8
PERFIL
10
-4.260520
20
6.203860
30
0
11
-4.383963
21
6.262481
31
0
0
LINE
8
PERFIL
10
-4.383963
20
6.262481
30
0
11
-4.511362
21
6.317546
31
0
0
LINE
8
PERFIL
10
-4.511362
20
6.317546
30
0
11
-4.642545
21
6.369036
31
0
0
LINE
8
PERFIL
10
-4.642545
20
6.369036
30
0
11
-4.777355
21
6.416921
31
0
0
LINE
8
PERFIL
10
-5.192974
20
6.085476
30
0
11
-5.176287
21
5.943391
31
0
0
LINE
8
PERFIL
10
-5.176287
20
5.943391
30
0
11
-5.155279
21
5.804039
31
0
0
LINE
8
PERFIL
10
-5.155279
20
5.804039
30
0
11
-5.129944
21
5.667581
31
0
0
LINE
8
PERFIL
10
-5.129944
20
5.667581
30
0
11
-5.100262
21
5.534189
31
0
0
LINE
8
PERFIL
10
-5.100262
20
5.534189
30
0
11
-5.066192
21
5.404056
31
0
0
LINE
8
PERFIL
10
-5.066192
20
5.404056
30
0
11
-5.027667
21
5.277403
31
0
0
LINE
8
PERFIL
10
-5.027667
20
5.277403
30
0
11
-4.984579
21
5.154490
31
0
0
LINE
8
PERFIL
10
-4.984579
20
5.154490
30
0
11
-4.936761
21
5.035640
31
0
0
LINE
8
PERFIL
10
-4.936761
20
5.035640
30
0
11
-4.883939
21
4.921278
31
0
0
LINE
8
PERFIL
10
-4.883939
20
4.921278
30
0
11
-4.825655
21
4.812022
31
0
0
LINE
8
PERFIL
10
-4.825655
20
4.812022
30
0
11
-4.761012
21
4.708929
31
0
0
LINE
8
PERFIL
10
-4.761012
20
4.708929
30
0
11
-4.687201
21
4.615001
31
0
0
LINE
8
PERFIL
10
-4.687201
20
4.615001
30
0
11
-4.097299
21
4.034185
31
0
0
LINE
8
PERFIL
10
-4.844774
20
3.096880
30
0
11
-5.542293
21
3.542749
31
0
0
LINE
8
PERFIL
10
-5.542293
20
3.542749
30
0
11
-5.650291
21
3.593808
31
0
0
LINE
8
PERFIL
10
-5.650291
20
3.593808
30
0
11
-5.765184
21
3.633891
31
0
0
LINE
8
PERFIL
10
-5.765184
20
3.633891
30
0
11
-5.884670
21
3.666401
31
0
0
LINE
8
PERFIL
10
-5.884670
20
3.666401
30
0
11
-6.007919
21
3.692450
31
0
0
LINE
8
PERFIL
10
-6.007919
20
3.692450
30
0
11
-6.134430
21
3.712624
31
0
0
LINE
8
PERFIL
10
-6.134430
20
3.712624
30
0
11
-6.263849
21
3.727280
31
0
0
LINE
8
PERFIL
10
-6.263849
20
3.727280
30
0
11
-6.395899
21
3.736656
31
0
0
LINE
8
PERFIL
10
-6.395899
20
3.736656
30
0
11
-6.530350
21
3.740915
31
0
0
LINE
8
PERFIL
10
-6.530350
20
3.740915
30
0
11
-6.667003
21
3.740170
31
0
0
LINE
8
PERFIL
10
-6.667003
20
3.740170
30
0
11
-6.805678
21
3.734505
31
0
0
LINE
8
PERFIL
10
-6.805678
20
3.734505
30
0
11
-6.946210
21
3.723978
31
0
0
LINE
8
PERFIL
10
-6.946210
20
3.723978
30
0
11
-7.088446
21
3.708630
31
0
0
LINE
8
PERFIL
10
-7.319097
20
3.229677
30
0
11
-7.242414
21
3.108903
31
0
0
LINE
8
PERFIL
10
-7.242414
20
3.108903
30
0
11
-7.163024
21
2.992467
31
0
0
LINE
8
PERFIL
10
-7.163024
20
2.992467
30
0
11
-7.080991
21
2.880515
31
0
0
LINE
8
PERFIL
10
-7.080991
20
2.880515
30
0
11
-6.996372
21
2.773211
31
0
0
LINE
8
PERFIL
10
-6.996372
20
2.773211
30
0
11
-6.909213
21
2.670748
31
0
0
LINE
8
PERFIL
10
-6.909213
20
2.670748
30
0
11
-6.819551
21
2.573353
31
0
0
LINE
8
PERFIL
10
-6.819551
20
2.573353
30
0
11
-6.727400
21
2.481307
31
0
0
LINE
8
PERFIL
10
-6.727400
20
2.481307
30
0
11
-6.632750
21
2.394975
31
0
0
LINE
8
PERFIL
10
-6.632750
20
2.394975
30
0
11
-6.535540
21
2.314857
31
0
0
LINE
8
PERFIL
10
-6.535540
20
2.314857
30
0
11
-6.435623
21
2.241708
31
0
0
LINE
8
PERFIL
10
-6.435623
20
2.241708
30
0
11
-6.332651
21
2.176873
31
0
0
LINE
8
PERFIL
10
-6.332651
20
2.176873
30
0
11
-6.225396
21
2.124271
31
0
0
LINE
8
PERFIL
10
-6.225396
20
2.124271
30
0
11
-5.441905
21
1.856923
31
0
0
LINE
8
PERFIL
10
-5.708676
20
0.688124
30
0
11
-6.530575
21
0.787196
31
0
0
LINE
8
PERFIL
10
-6.530575
20
0.787196
30
0
11
-6.650032
21
0.786340
31
0
0
LINE
8
PERFIL
10
-6.650032
20
0.786340
30
0
11
-6.770937
21
0.772603
31
0
0
LINE
8
PERFIL
10
-6.770937
20
0.772603
30
0
11
-6.892697
21
0.750051
31
0
0
LINE
8
PERFIL
10
-6.892697
20
0.750051
30
0
11
-7.015042
21
0.720045
31
0
0
LINE
8
PERFIL
10
-7.015042
20
0.720045
30
0
11
-7.137777
21
0.683329
31
0
0
LINE
8
PERFIL
10
-7.137777
20
0.683329
30
0
11
-7.260739
21
0.640381
31
0
0
LINE
8
PERFIL
10
-7.260739
20
0.640381
30
0
11
-7.383780
21
0.591534
31
0
0
LINE
8
PERFIL
10
-7.383780
20
0.591534
30
0
11
-7.506764
21
0.537035
31
0
0
LINE
8
PERFIL
10
-7.506764
20
0.537035
30
0
11
-7.629561
21
0.477073
31
0
0
LINE
8
PERFIL
10
-7.629561
20
0.477073
30
0
11
-7.752045
21
0.411800
31
0
0
LINE
8
PERFIL
10
-7.752045
20
0.411800
30
0
11
-7.874092
21
0.341341
31
0
0
LINE
8
PERFIL
10
-7.874092
20
0.341341
30
0
11
-7.995583
21
0.265799
31
0
0
LINE
8
PERFIL
10
-7.995583
20
-0.265799
30
0
11
-7.874092
21
-0.341341
31
0
0
LINE
8
PERFIL
10
-7.874092
20
-0.341341
30
0
11
-7.752045
21
-0.411800
31
0
0
LINE
8
PERFIL
10
-7.752045
20
-0.411800
30
0
11
-7.629561
21
-0.477073
31
0
0
LINE
8
PERFIL
10
-7.629561
20
-0.477073
30
0
11
-7.506764
21
-0.537035
31
0
0
LINE
8
PERFIL
10
-7.506764
20
-0.537035
30
0
11
-7.383780
21
-0.591534
31
0
0
LINE
8
PERFIL
10
-7.383780
20
-0.591534
30
0
11
-7.260739
21
-0.640381
31
0
0
LINE
8
PERFIL
10
-7.260739
20
-0.640381
30
0
11
-7.137777
21
-0.683329
31
0
0
LINE
8
PERFIL
10
-7.137777
20
-0.683329
30
0
11
-7.015042
21
-0.720045
31
0
0
LINE
8
PERFIL
10
-7.015042
20
-0.720045
30
0
11
-6.892697
21
-0.750051
31
0
0
LINE
8
PERFIL
10
-6.892697
20
-0.750051
30
0
11
-6.770937
21
-0.772603
31
0
0
LINE
8
PERFIL
10
-6.770937
20
-0.772603
30
0
11
-6.650032
21
-0.786340
31
0
0
LINE
8
PERFIL
10
-6.650032
20
-0.786340
30
0
11
-6.530575
21
-0.787196
31
0
0
LINE
8
PERFIL
10
-6.530575
20
-0.787196
30
0
11
-5.708676
21
-0.688124
31
0
0
LINE
8
PERFIL
10
-5.441905
20
-1.856923
30
0
11
-6.225396
21
-2.124271
31
0
0
LINE
8
PERFIL
10
-6.225396
20
-2.124271
30
0
11
-6.332651
21
-2.176873
31
0
0
LINE
8
PERFIL
10
-6.332651
20
-2.176873
30
0
11
-6.435623
21
-2.241708
31
0
0
LINE
8
PERFIL
10
-6.435623
20
-2.241708
30
0
11
-6.535540
21
-2.314857
31
0
0
LINE
8
PERFIL
10
-6.535540
20
-2.314857
30
0
11
-6.632750
21
-2.394975
31
0
0
LINE
8
PERFIL
10
-6.632750
20
-2.394975
30
0
11
-6.727400
21
-2.481307
31
0
0
LINE
8
PERFIL
10
-6.727400
20
-2.481307
30
0
11
-6.819551
21
-2.573353
31
0
0
LINE
8
PERFIL
10
-6.819551
20
-2.573353
30
0
11
-6.909213
21
-2.670748
31
0
0
LINE
8
PERFIL
10
-6.909213
20
-2.670748
30
0
11
-6.996372
21
-2.773211
31
0
0
LINE
8
PERFIL
10
-6.996372
20
-2.773211
30
0
11
-7.080991
21
-2.880515
31
0
0
LINE
8
PERFIL
10
-7.080991
20
-2.880515
30
0
11
-7.163024
21
-2.992467
31
0
0
LINE
8
PERFIL
10
-7.163024
20
-2.992467
30
0
11
-7.242414
21
-3.108903
31
0
0
LINE
8
PERFIL
10
-7.242414
20
-3.108903
30
0
11
-7.319097
21
-3.229677
31
0
0
LINE
8
PERFIL
10
-7.088446
20
-3.708630
30
0
11
-6.946210
21
-3.723978
31
0
0
LINE
8
PERFIL
10
-6.946210
20
-3.723978
30
0
11
-6.805678
21
-3.734505
31
0
0
LINE
8
PERFIL
10
-6.805678
20
-3.734505
30
0
11
-6.667003
21
-3.740170
31
0
0
LINE
8
PERFIL
10
-6.667003
20
-3.740170
30
0
11
-6.530350
21
-3.740915
31
0
0
LINE
8
PERFIL
10
-6.530350
20
-3.740915
30
0
11
-6.395899
21
-3.736656
31
0
0
LINE
8
PERFIL
10
-6.395899
20
-3.736656
30
0
11
-6.263849
21
-3.727280
31
0
0
LINE
8
PERFIL
10
-6.263849
20
-3.727280
30
0
11
-6.134430
21
-3.712624
31
0
0
LINE
8
PERFIL
10
-6.134430
20
-3.712624
30
0
11
-6.007919
21
-3.692450
31
0
0
LINE
8
PERFIL
10
-6.007919
20
-3.692450
30
0
11
-5.884670
21
-3.666401
31
0
0
LINE
8
PERFIL
10
-5.884670
20
-3.666401
30
0
11
-5.765184
21
-3.633891
31
0
0
LINE
8
PERFIL
10
-5.765184
20
-3.633891
30
0
11
-5.650291
21
-3.593808
31
0
0
LINE
8
PERFIL
10
-5.650291
20
-3.593808
30
0
11
-5.542293
21
-3.542749
31
0
0
LINE
8
PERFIL
10
-5.542293
20
-3.542749
30
0
11
-4.844774
21
-3.096880
31
0
0
LINE
8
PERFIL
10
-4.097299
20
-4.034185
30
0
11
-4.687201
21
-4.615001
31
0
0
LINE
8
PERFIL
10
-4.687201
20
-4.615001
30
0
11
-4.761012
21
-4.708929
31
0
0
LINE
8
PERFIL
10
-4.761012
20
-4.708929
30
0
11
-4.825655
21
-4.812022
31
0
0
LINE
8
PERFIL
10
-4.825655
20
-4.812022
30
0
11
-4.883939
21
-4.921278
31
0
0
LINE
8
PERFIL
10
-4.883939
20
-4.921278
30
0
11
-4.936761
21
-5.035640
31
0
0
LINE
8
PERFIL
10
-4.936761
20
-5.035640
30
0
11
-4.984579
21
-5.154490
31
0
0
LINE
8
PERFIL
10
-4.984579
20
-5.154490
30
0
11
-5.027667
21
-5.277403
31
0
0
LINE
8
PERFIL
10
-5.027667
20
-5.277403
30
0
11
-5.066192
21
-5.404056
31
0
0
LINE
8
PERFIL
10
-5.066192
20
-5.404056
30
0
11
-5.100262
21
-5.534189
31
0
0
LINE
8
PERFIL
10
-5.100262
20
-5.534189
30
0
11
-5.129944
21
-5.667581
31
0
0
LINE
8
PERFIL
10
-5.129944
20
-5.667581
30
0
11
-5.155279
21
-5.804039
31
0
0
LINE
8
PERFIL
10
-5.155279
20
-5.804039
30
0
11
-5.176287
21
-5.943391
31
0
0
LINE
8
PERFIL
10
-5.176287
20
-5.943391
30
0
11
-5.192974
21
-6.085476
31
0
0
LINE
8
PERFIL
10
-4.777355
20
-6.416921
30
0
11
-4.642545
21
-6.369036
31
0
0
LINE
8
PERFIL
10
-4.642545
20
-6.369036
30
0
11
-4.511362
21
-6.317546
31
0
0
LINE
8
PERFIL
10
-4.511362
20
-6.317546
30
0
11
-4.383963
21
-6.262481
31
0
0
LINE
8
PERFIL
10
-4.383963
20
-6.262481
30
0
11
-4.260520
21
-6.203860
31
0
0
LINE
8
PERFIL
10
-4.260520
20
-6.203860
30
0
11
-4.141231
21
-6.141687
31
0
0
LINE
8
PERFIL
10
-4.141231
20
-6.141687
30
0
11
-4.026326
21
-6.075945
31
0
0
LINE
8
PERFIL
10
-4.026326
20
-6.075945
30
0
11
-3.916083
21
-6.006588
31
0
0
LINE
8
PERFIL
10
-3.916083
20
-6.006588
30
0
11
-3.810854
21
-5.933521
31
0
0
LINE
8
PERFIL
10
-3.810854
20
-5.933521
30
0
11
-3.711113
21
-5.856576
31
0
0
LINE
8
PERFIL
10
-3.711113
20
-5.856576
30
0
11
-3.617565
21
-5.775442
31
0
0
LINE
8
PERFIL
10
-3.617565
20
-5.775442
30
0
11
-3.531442
21
-5.689479
31
0
0
LINE
8
PERFIL
10
-3.531442
20
-5.689479
30
0
11
-3.456293
21
-5.596618
31
0
0
LINE
8
PERFIL
10
-3.456293
20
-5.596618
30
0
11
-3.021304
21
-4.892261
31
0
0
LINE
8
PERFIL
10
-1.941171
20
-5.412426
30
0
11
-2.220649
21
-6.191672
31
0
0
LINE
8
PERFIL
10
-2.220649
20
-6.191672
30
0
11
-2.246396
21
-6.308324
31
0
0
LINE
8
PERFIL
10
-2.246396
20
-6.308324
30
0
11
-2.259907
21
-6.429255
31
0
0
LINE
8
PERFIL
10
-2.259907
20
-6.429255
30
0
11
-2.265015
21
-6.552980
31
0
0
LINE
8
PERFIL
10
-2.265015
20
-6.552980
30
0
11
-2.262985
21
-6.678935
31
0
0
LINE
8
PERFIL
10
-2.262985
20
-6.678935
30
0
11
-2.254501
21
-6.806763
31
0
0
LINE
8
PERFIL
10
-2.254501
20
-6.806763
30
0
11
-2.239992
21
-6.936199
31
0
0
LINE
8
PERFIL
10
-2.239992
20
-6.936199
30
0
11
-2.219749
21
-7.067024
31
0
0
LINE
8
PERFIL
10
-2.219749
20
-7.067024
30
0
11
-2.193982
21
-7.199052
31
0
0
LINE
8
PERFIL
10
-2.193982
20
-7.199052
30
0
11
-2.162849
21
-7.332113
31
0
0
LINE
8
PERFIL
10
-2.162849
20
-7.332113
30
0
11
-2.126468
21
-7.466051
31
0
0
LINE
8
PERFIL
10
-2.126468
20
-7.466051
30
0
11
-2.084933
21
-7.600717
31
0
0
LINE
8
PERFIL
10
-2.084933
20
-7.600717
30
0
11
-2.038319
21
-7.735971
31
0
0
LINE
8
PERFIL
10
-1.520050
20
-7.854263
30
0
11
-1.419368
21
-7.752628
31
0
0
LINE
8
PERFIL
10
-1.419368
20
-7.752628
30
0
11
-1.323517
21
-7.649319
31
0
0
LINE
8
PERFIL
10
-1.323517
20
-7.649319
30
0
11
-1.232625
21
-7.544431
31
0
0
LINE
8
PERFIL
10
-1.232625
20
-7.544431
30
0
11
-1.146842
21
-7.438055
31
0
0
LINE
8
PERFIL
10
-1.146842
20
-7.438055
30
0
11
-1.066342
21
-7.330282
31
0
0
LINE
8
PERFIL
10
-1.066342
20
-7.330282
30
0
11
-0.991341
21
-7.221195
31
0
0
LINE
8
PERFIL
10
-0.991341
20
-7.221195
30
0
11
-0.922108
21
-7.110873
31
0
0
LINE
8
PERFIL
10
-0.922108
20
-7.110873
30
0
11
-0.859002
21
-6.999385
31
0
0
LINE
8
PERFIL
10
-0.859002
20
-6.999385
30
0
11
-0.802524
21
-6.886784
31
0
0
LINE
8
PERFIL
10
-0.802524
20
-6.886784
30
0
11
-0.753443
21
-6.773096
31
0
0
LINE
8
PERFIL
10
-0.753443
20
-6.773096
30
0
11
-0.713147
21
-6.658278
31
0
0
LINE
8
PERFIL
10
-0.713147
20
-6.658278
30
0
11
-0.685731
21
-6.542008
31
0
0
LINE
8
PERFIL
10
-0.685731
20
-6.542008
30
0
11
-0.599429
21
-5.718670
31
0
0
LINE
8
PERFIL
10
0.599429
20
-5.718670
30
0
11
0.685731
21
-6.542008
31
0
0
LINE
8
PERFIL
10
0.685731
20
-6.542008
30
0
11
0.713147
21
-6.658278
31
0
0
LINE
8
PERFIL
10
0.713147
20
-6.658278
30
0
11
0.753443
21
-6.773096
31
0
0
LINE
8
PERFIL
10
0.753443
20
-6.773096
30
0
11
0.802524
21
-6.886784
31
0
0
LINE
8
PERFIL
10
0.802524
20
-6.886784
30
0
11
0.859002
21
-6.999385
31
0
0
LINE
8
PERFIL
10
0.859002
20
-6.999385
30
0
11
0.922108
21
-7.110873
31
0
0
LINE
8
PERFIL
10
0.922108
20
-7.110873
30
0
11
0.991341
21
-7.221195
31
0
0
LINE
8
PERFIL
10
0.991341
20
-7.221195
30
0
11
1.066342
21
-7.330282
31
0
0
LINE
8
PERFIL
10
1.066342
20
-7.330282
30
0
11
1.146842
21
-7.438055
31
0
0
LINE
8
PERFIL
10
1.146842
20
-7.438055
30
0
11
1.232625
21
-7.544431
31
0
0
LINE
8
PERFIL
10
1.232625
20
-7.544431
30
0
11
1.323517
21
-7.649319
31
0
0
LINE
8
PERFIL
10
1.323517
20
-7.649319
30
0
11
1.419368
21
-7.752628
31
0
0
LINE
8
PERFIL
10
1.419368
20
-7.752628
30
0
11
1.520050
21
-7.854263
31
0
0
LINE
8
PERFIL
10
2.038319
20
-7.735971
30
0
11
2.084933
21
-7.600717
31
0
0
LINE
8
PERFIL
10
2.084933
20
-7.600717
30
0
11
2.126468
21
-7.466051
31
0
0
LINE
8
PERFIL
10
2.126468
20
-7.466051
30
0
11
2.162849
21
-7.332113
31
0
0
LINE
8
PERFIL
10
2.162849
20
-7.332113
30
0
11
2.193982
21
-7.199052
31
0
0
LINE
8
PERFIL
10
2.193982
20
-7.199052
30
0
11
2.219749
21
-7.067024
31
0
0
LINE
8
PERFIL
10
2.219749
20
-7.067024
30
0
11
2.239992
21
-6.936199
31
0
0
LINE
8
PERFIL
10
2.239992
20
-6.936199
30
0
11
2.254501
21
-6.806763
31
0
0
LINE
8
PERFIL
10
2.254501
20
-6.806763
30
0
11
2.262985
21
-6.678935
31
0
0
LINE
8
PERFIL
10
2.262985
20
-6.678935
30
0
11
2.265015
21
-6.552980
31
0
0
LINE
8
PERFIL
10
2.265015
20
-6.552980
30
0
11
2.259907
21
-6.429255
31
0
0
LINE
8
PERFIL
10
2.259907
20
-6.429255
30
0
11
2.246396
21
-6.308324
31
0
0
LINE
8
PERFIL
10
2.246396
20
-6.308324
30
0
11
2.220649
21
-6.191672
31
0
0
LINE
8
PERFIL
10
2.220649
20
-6.191672
30
0
11
1.941171
21
-5.412426
31
0
0
LINE
8
PERFIL
10
3.021304
20
-4.892261
30
0
11
3.456293
21
-5.596618
31
0
0
LINE
8
PERFIL
10
3.456293
20
-5.596618
30
0
11
3.531442
21
-5.689479
31
0
0
LINE
8
PERFIL
10
3.531442
20
-5.689479
30
0
11
3.617565
21
-5.775442
31
0
0
LINE
8
PERFIL
10
3.617565
20
-5.775442
30
0
11
3.711113
21
-5.856576
31
0
0
LINE
8
PERFIL
10
3.711113
20
-5.856576
30
0
11
3.810854
21
-5.933521
31
0
0
LINE
8
PERFIL
10
3.810854
20
-5.933521
30
0
11
3.916083
21
-6.006588
31
0
0
LINE
8
PERFIL
10
3.916083
20
-6.006588
30
0
11
4.026326
21
-6.075945
31
0
0
LINE
8
PERFIL
10
4.026326
20
-6.075945
30
0
11
4.141231
21
-6.141687
31
0
0
LINE
8
PERFIL
10
4.141231
20
-6.141687
30
0
11
4.260520
21
-6.203860
31
0
0
LINE
8
PERFIL
10
4.260520
20
-6.203860
30
0
11
4.383963
21
-6.262481
31
0
0
LINE
8
PERFIL
10
4.383963
20
-6.262481
30
0
11
4.511362
21
-6.317546
31
0
0
LINE
8
PERFIL
10
4.511362
20
-6.317546
30
0
11
4.642545
21
-6.369036
31
0
0
LINE
8
PERFIL
10
4.642545
20
-6.369036
30
0
11
4.777355
21
-6.416921
31
0
0
LINE
8
PERFIL
10
5.192974
20
-6.085476
30
0
11
5.176287
21
-5.943391
31
0
0
LINE
8
PERFIL
10
5.176287
20
-5.943391
30
0
11
5.155279
21
-5.804039
31
0
0
LINE
8
PERFIL
10
5.155279
20
-5.804039
30
0
11
5.129944
21
-5.667581
31
0
0
LINE
8
PERFIL
10
5.129944
20
-5.667581
30
0
11
5.100262
21
-5.534189
31
0
0
LINE
8
PERFIL
10
5.100262
20
-5.534189
30
0
11
5.066192
21
-5.404056
31
0
0
LINE
8
PERFIL
10
5.066192
20
-5.404056
30
0
11
5.027667
21
-5.277403
31
0
0
LINE
8
PERFIL
10
5.027667
20
-5.277403
30
0
11
4.984579
21
-5.154490
31
0
0
LINE
8
PERFIL
10
4.984579
20
-5.154490
30
0
11
4.936761
21
-5.035640
31
0
0
LINE
8
PERFIL
10
4.936761
20
-5.035640
30
0
11
4.883939
21
-4.921278
31
0
0
LINE
8
PERFIL
10
4.883939
20
-4.921278
30
0
11
4.825655
21
-4.812022
31
0
0
LINE
8
PERFIL
10
4.825655
20
-4.812022
30
0
11
4.761012
21
-4.708929
31
0
0
LINE
8
PERFIL
10
4.761012
20
-4.708929
30
0
11
4.687201
21
-4.615001
31
0
0
LINE
8
PERFIL
10
4.687201
20
-4.615001
30
0
11
4.097299
21
-4.034185
31
0
0
LINE
8
PERFIL
10
4.844774
20
-3.096880
30
0
11
5.542293
21
-3.542749
31
0
0
LINE
8
PERFIL
10
5.542293
20
-3.542749
30
0
11
5.650291
21
-3.593808
31
0
0
LINE
8
PERFIL
10
5.650291
20
-3.593808
30
0
11
5.765184
21
-3.633891
31
0
0
LINE
8
PERFIL
10
5.765184
20
-3.633891
30
0
11
5.884670
21
-3.666401
31
0
0
LINE
8
PERFIL
10
5.884670
20
-3.666401
30
0
11
6.007919
21
-3.692450
31
0
0
LINE
8
PERFIL
10
6.007919
20
-3.692450
30
0
11
6.134430
21
-3.712624
31
0
0
LINE
8
PERFIL
10
6.134430
20
-3.712624
30
0
11
6.263849
21
-3.727280
31
0
0
LINE
8
PERFIL
10
6.263849
20
-3.727280
30
0
11
6.395899
21
-3.736656
31
0
0
LINE
8
PERFIL
10
6.395899
20
-3.736656
30
0
11
6.530350
21
-3.740915
31
0
0
LINE
8
PERFIL
10
6.530350
20
-3.740915
30
0
11
6.667003
21
-3.740170
31
0
0
LINE
8
PERFIL
10
6.667003
20
-3.740170
30
0
11
6.805678
21
-3.734505
31
0
0
LINE
8
PERFIL
10
6.805678
20
-3.734505
30
0
11
6.946210
21
-3.723978
31
0
0
LINE
8
PERFIL
10
6.946210
20
-3.723978
30
0
11
7.088446
21
-3.708630
31
0
0
LINE
8
PERFIL
10
7.319097
20
-3.229677
30
0
11
7.242414
21
-3.108903
31
0
0
LINE
8
PERFIL
10
7.242414
20
-3.108903
30
0
11
7.163024
21
-2.992467
31
0
0
LINE
8
PERFIL
10
7.163024
20
-2.992467
30
0
11
7.080991
21
-2.880515
31
0
0
LINE
8
PERFIL
10
7.080991
20
-2.880515
30
0
11
6.996372
21
-2.773211
31
0
0
LINE
8
PERFIL
10
6.996372
20
-2.773211
30
0
11
6.909213
21
-2.670748
31
0
0
LINE
8
PERFIL
10
6.909213
20
-2.670748
30
0
11
6.819551
21
-2.573353
31
0
0
LINE
8
PERFIL
10
6.819551
20
-2.573353
30
0
11
6.727400
21
-2.481307
31
0
0
LINE
8
PERFIL
10
6.727400
20
-2.481307
30
0
11
6.632750
21
-2.394975
31
0
0
LINE
8
PERFIL
10
6.632750
20
-2.394975
30
0
11
6.535540
21
-2.314857
31
0
0
LINE
8
PERFIL
10
6.535540
20
-2.314857
30
0
11
6.435623
21
-2.241708
31
0
0
LINE
8
PERFIL
10
6.435623
20
-2.241708
30
0
11
6.332651
21
-2.176873
31
0
0
LINE
8
PERFIL
10
6.332651
20
-2.176873
30
0
11
6.225396
21
-2.124271
31
0
0
LINE
8
PERFIL
10
6.225396
20
-2.124271
30
0
11
5.441905
21
-1.856923
31
0
0
ARC
8
PERFIL
10
0
20
0
30
0
40
8.000000
50
358.096007
51
1.903993
0
ARC
8
PERFIL
10
0
20
0
30
0
40
5.750000
50
6.873274
51
18.841012
0
ARC
8
PERFIL
10
0
20
0
30
0
40
8.000000
50
23.810293
51
27.618279
0
ARC
8
PERFIL
10
0
20
0
30
0
40
5.750000
50
32.587560
51
44.555297
0
ARC
8
PERFIL
10
0
20
0
30
0
40
8.000000
50
49.524578
51
53.332564
0
ARC
8
PERFIL
10
0
20
0
30
0
40
5.750000
50
58.301846
51
70.269583
0
ARC
8
PERFIL
10
0
20
0
30
0
40
8.000000
50
75.238864
51
79.046850
0
ARC
8
PERFIL
10
0
20
0
30
0
40
5.750000
50
84.016131
51
95.983869
0
ARC
8
PERFIL
10
0
20
0
30
0
40
8.000000
50
100.953150
51
104.761136
0
ARC
8
PERFIL
10
0
20
0
30
0
40
5.750000
50
109.730417
51
121.698154
0
ARC
8
PERFIL
10
0
20
0
30
0
40
8.000000
50
126.667436
51
130.475422
0
ARC
8
PERFIL
10
0
20
0
30
0
40
5.750000
50
135.444703
51
147.412440
0
ARC
8
PERFIL
10
0
20
0
30
0
40
8.000000
50
152.381721
51
156.189707
0
ARC
8
PERFIL
10
0
20
0
30
0
40
5.750000
50
161.158988
51
173.126726
0
ARC
8
PERFIL
10
0
20
0
30
0
40
8.000000
50
178.096007
51
181.903993
0
ARC
8
PERFIL
10
0
20
0
30
0
40
5.750000
50
186.873274
51
198.841012
0
ARC
8
PERFIL
10
0
20
0
30
0
40
8.000000
50
203.810293
51
207.618279
0
ARC
8
PERFIL
10
0
20
0
30
0
40
5.750000
50
212.587560
51
224.555297
0
ARC
8
PERFIL
10
0
20
0
30
0
40
8.000000
50
229.524578
51
233.332564
0
ARC
8
PERFIL
10
0
20
0
30
0
40
5.750000
50
238.301846
51
250.269583
0
ARC
8
PERFIL
10
0
20
0
30
0
40
8.000000
50
255.238864
51
259.046850
0
ARC
8
PERFIL
10
0
20
0
30
0
40
5.750000
50
264.016131
51
275.983869
0
ARC
8
PERFIL
10
0
20
0
30
0
40
8.000000
50
280.953150
51
284.761136
0
ARC
8
PERFIL
10
0
20
0
30
0
40
5.750000
50
289.730417
51
301.698154
0
ARC
8
PERFIL
10
0
20
0
30
0
40
8.000000
50
306.667436
51
310.475422
0
ARC
8
PERFIL
10
0
20
0
30
0
40
5.750000
50
315.444703
51
327.412440
0
ARC
8
PERFIL
10
0
20
0
30
0
40
8.000000
50
332.381721
51
336.189707
0
ARC
8
PERFIL
10
0
20
0
30
0
40
5.750000
50
341.158988
51
353.126726
0
ENDSEC
0
EOF
