0
SECTION
2
HEADER
9
$ACADVER
1
AC1009
0
ENDSEC
0
SECTION
2
ENTITIES
0
LINE
8
PERFIL
10
8.715799
20
-0.772878
30
0
11
9.360197
21
-0.830021
31
0
0
LINE
8
PERFIL
10
9.360197
20
-0.830021
30
0
11
9.494589
21
-0.826744
31
0
0
LINE
8
PERFIL
10
9.494589
20
-0.826744
30
0
11
9.630046
21
-0.810646
31
0
0
LINE
8
PERFIL
10
9.630046
20
-0.810646
30
0
11
9.766127
21
-0.785862
31
0
0
LINE
8
PERFIL
10
9.766127
20
-0.785862
30
0
11
9.902636
21
-0.753797
31
0
0
LINE
8
PERFIL
10
9.902636
20
-0.753797
30
0
11
10.039429
21
-0.715231
31
0
0
LINE
8
PERFIL
10
10.039429
20
-0.715231
30
0
11
10.176387
21
-0.670668
31
0
0
LINE
8
PERFIL
10
10.176387
20
-0.670668
30
0
11
10.313406
21
-0.620464
31
0
0
LINE
8
PERFIL
10
10.313406
20
-0.620464
30
0
11
10.450386
21
-0.564886
31
0
0
LINE
8
PERFIL
10
10.450386
20
-0.564886
30
0
11
10.587235
21
-0.504139
31
0
0
LINE
8
PERFIL
10
10.587235
20
-0.504139
30
0
11
10.723864
21
-0.438390
31
0
0
LINE
8
PERFIL
10
10.723864
20
-0.438390
30
0
11
10.860185
21
-0.367774
31
0
0
LINE
8
PERFIL
10
10.860185
20
-0.367774
30
0
11
10.996113
21
-0.292406
31
0
0
LINE
8
PERFIL
10
10.996113
20
0.292406
30
0
11
10.860185
21
0.367774
31
0
0
LINE
8
PERFIL
10
10.860185
20
0.367774
30
0
11
10.723864
21
0.438390
31
0
0
LINE
8
PERFIL
10
10.723864
20
0.438390
30
0
11
10.587235
21
0.504139
31
0
0
LINE
8
PERFIL
10
10.587235
20
0.504139
30
0
11
10.450386
21
0.564886
31
0
0
LINE
8
PERFIL
10
10.450386
20
0.564886
30
0
11
10.313406
21
0.620464
31
0
0
LINE
8
PERFIL
10
10.313406
20
0.620464
30
0
11
10.176387
21
0.670668
31
0
0
LINE
8
PERFIL
10
10.176387
20
0.670668
30
0
11
10.039429
21
0.715231
31
0
0
LINE
8
PERFIL
10
10.039429
20
0.715231
30
0
11
9.902636
21
0.753797
31
0
0
LINE
8
PERFIL
10
9.902636
20
0.753797
30
0
11
9.766127
21
0.785862
31
0
0
LINE
8
PERFIL
10
9.766127
20
0.785862
30
0
11
9.630046
21
0.810646
31
0
0
LINE
8
PERFIL
10
9.630046
20
0.810646
30
0
11
9.494589
21
0.826744
31
0
0
LINE
8
PERFIL
10
9.494589
20
0.826744
30
0
11
9.360197
21
0.830021
31
0
0
LINE
8
PERFIL
10
9.360197
20
0.830021
30
0
11
8.715799
21
0.772878
31
0
0
LINE
8
PERFIL
10
8.528050
20
1.958279
30
0
11
9.158567
21
2.103064
31
0
0
LINE
8
PERFIL
10
9.158567
20
2.103064
30
0
11
9.285369
21
2.147709
31
0
0
LINE
8
PERFIL
10
9.285369
20
2.147709
30
0
11
9.409221
21
2.204878
31
0
0
LINE
8
PERFIL
10
9.409221
20
2.204878
30
0
11
9.530984
21
2.270500
31
0
0
LINE
8
PERFIL
10
9.530984
20
2.270500
30
0
11
9.650902
21
2.343179
31
0
0
LINE
8
PERFIL
10
9.650902
20
2.343179
30
0
11
9.769083
21
2.422129
31
0
0
LINE
8
PERFIL
10
9.769083
20
2.422129
30
0
11
9.885567
21
2.506833
31
0
0
LINE
8
PERFIL
10
9.885567
20
2.506833
30
0
11
10.000366
21
2.596921
31
0
0
LINE
8
PERFIL
10
10.000366
20
2.596921
30
0
11
10.113467
21
2.692109
31
0
0
LINE
8
PERFIL
10
10.113467
20
2.692109
30
0
11
10.224847
21
2.792171
31
0
0
LINE
8
PERFIL
10
10.224847
20
2.792171
30
0
11
10.334471
21
2.896923
31
0
0
LINE
8
PERFIL
10
10.334471
20
2.896923
30
0
11
10.442298
21
3.006208
31
0
0
LINE
8
PERFIL
10
10.442298
20
3.006208
30
0
11
10.548283
21
3.119892
31
0
0
LINE
8
PERFIL
10
10.367567
20
3.676080
30
0
11
10.215001
21
3.705756
31
0
0
LINE
8
PERFIL
10
10.215001
20
3.705756
30
0
11
10.063531
21
3.730790
31
0
0
LINE
8
PERFIL
10
10.063531
20
3.730790
30
0
11
9.913272
21
3.751100
31
0
0
LINE
8
PERFIL
10
9.913272
20
3.751100
30
0
11
9.764348
21
3.766585
31
0
0
LINE
8
PERFIL
10
9.764348
20
3.766585
30
0
11
9.616898
21
3.777114
31
0
0
LINE
8
PERFIL
10
9.616898
20
3.777114
30
0
11
9.471071
21
3.782520
31
0
0
LINE
8
PERFIL
10
9.471071
20
3.782520
30
0
11
9.327045
21
3.782579
31
0
0
LINE
8
PERFIL
10
9.327045
20
3.782579
30
0
11
9.185030
21
3.776987
31
0
0
LINE
8
PERFIL
10
9.185030
20
3.776987
30
0
11
9.045294
21
3.765298
31
0
0
LINE
8
PERFIL
10
9.045294
20
3.765298
30
0
11
8.908214
21
3.746818
31
0
0
LINE
8
PERFIL
10
8.908214
20
3.746818
30
0
11
8.774413
21
3.720270
31
0
0
LINE
8
PERFIL
10
8.774413
20
3.720270
30
0
11
8.645586
21
3.681856
31
0
0
LINE
8
PERFIL
10
8.645586
20
3.681856
30
0
11
8.050385
21
3.428381
31
0
0
LINE
8
PERFIL
10
7.505516
20
4.497747
30
0
11
8.060432
21
4.830285
31
0
0
LINE
8
PERFIL
10
8.060432
20
4.830285
30
0
11
8.167232
21
4.911929
31
0
0
LINE
8
PERFIL
10
8.167232
20
4.911929
30
0
11
8.267356
21
5.004573
31
0
0
LINE
8
PERFIL
10
8.267356
20
5.004573
30
0
11
8.362881
21
5.104610
31
0
0
LINE
8
PERFIL
10
8.362881
20
5.104610
30
0
11
8.454472
21
5.210788
31
0
0
LINE
8
PERFIL
10
8.454472
20
5.210788
30
0
11
8.542471
21
5.322394
31
0
0
LINE
8
PERFIL
10
8.542471
20
5.322394
30
0
11
8.627079
21
5.438948
31
0
0
LINE
8
PERFIL
10
8.627079
20
5.438948
30
0
11
8.708420
21
5.560102
31
0
0
LINE
8
PERFIL
10
8.708420
20
5.560102
30
0
11
8.786571
21
5.685581
31
0
0
LINE
8
PERFIL
10
8.786571
20
5.685581
30
0
11
8.861579
21
5.815164
31
0
0
LINE
8
PERFIL
10
8.861579
20
5.815164
30
0
11
8.933468
21
5.948664
31
0
0
LINE
8
PERFIL
10
8.933468
20
5.948664
30
0
11
9.002247
21
6.085921
31
0
0
LINE
8
PERFIL
10
9.002247
20
6.085921
30
0
11
9.067914
21
6.226792
31
0
0
LINE
8
PERFIL
10
8.724171
20
6.699914
30
0
11
8.569902
21
6.680992
31
0
0
LINE
8
PERFIL
10
8.569902
20
6.680992
30
0
11
8.418109
21
6.657994
31
0
0
LINE
8
PERFIL
10
8.418109
20
6.657994
30
0
11
8.268928
21
6.630878
31
0
0
LINE
8
PERFIL
10
8.268928
20
6.630878
30
0
11
8.122508
21
6.599585
31
0
0
LINE
8
PERFIL
10
8.122508
20
6.599585
30
0
11
7.979021
21
6.564034
31
0
0
LINE
8
PERFIL
10
7.979021
20
6.564034
30
0
11
7.838661
21
6.524112
31
0
0
LINE
8
PERFIL
10
7.838661
20
6.524112
30
0
11
7.701666
21
6.479662
31
0
0
LINE
8
PERFIL
10
7.701666
20
6.479662
30
0
11
7.568330
21
6.430458
31
0
0
LINE
8
PERFIL
10
7.568330
20
6.430458
30
0
11
7.439045
21
6.376161
31
0
0
LINE
8
PERFIL
10
7.439045
20
6.376161
30
0
11
7.314385
21
6.316225
31
0
0
LINE
8
PERFIL
10
7.314385
20
6.316225
30
0
11
7.195336
21
6.249630
31
0
0
LINE
8
PERFIL
10
7.195336
20
6.249630
30
0
11
7.084685
21
6.173286
31
0
0
LINE
8
PERFIL
10
7.084685
20
6.173286
30
0
11
6.596943
21
5.748290
31
0
0
LINE
8
PERFIL
10
5.748290
20
6.596943
30
0
11
6.173286
21
7.084685
31
0
0
LINE
8
PERFIL
10
6.173286
20
7.084685
30
0
11
6.249630
21
7.195336
31
0
0
LINE
8
PERFIL
10
6.249630
20
7.195336
30
0
11
6.316225
21
7.314385
31
0
0
LINE
8
PERFIL
10
6.316225
20
7.314385
30
0
11
6.376161
21
7.439045
31
0
0
LINE
8
PERFIL
10
6.376161
20
7.439045
30
0
11
6.430458
21
7.568330
31
0
0
LINE
8
PERFIL
10
6.430458
20
7.568330
30
0
11
6.479662
21
7.701666
31
0
0
LINE
8
PERFIL
10
6.479662
20
7.701666
30
0
11
6.524112
21
7.838661
31
0
0
LINE
8
PERFIL
10
6.524112
20
7.838661
30
0
11
6.564034
21
7.979021
31
0
0
LINE
8
PERFIL
10
6.564034
20
7.979021
30
0
11
6.599585
21
8.122508
31
0
0
LINE
8
PERFIL
10
6.599585
20
8.122508
30
0
11
6.630878
21
8.268928
31
0
0
LINE
8
PERFIL
10
6.630878
20
8.268928
30
0
11
6.657994
21
8.418109
31
0
0
LINE
8
PERFIL
10
6.657994
20
8.418109
30
0
11
6.680992
21
8.569902
31
0
0
LINE
8
PERFIL
10
6.680992
20
8.569902
30
0
11
6.699914
21
8.724171
31
0
0
LINE
8
PERFIL
10
6.226792
20
9.067914
30
0
11
6.085921
21
9.002247
31
0
0
LINE
8
PERFIL
10
6.085921
20
9.002247
30
0
11
5.948664
21
8.933468
31
0
0
LINE
8
PERFIL
10
5.948664
20
8.933468
30
0
11
5.815164
21
8.861579
31
0
0
LINE
8
PERFIL
10
5.815164
20
8.861579
30
0
11
5.685581
21
8.786571
31
0
0
LINE
8
PERFIL
10
5.685581
20
8.786571
30
0
11
5.560102
21
8.708420
31
0
0
LINE
8
PERFIL
10
5.560102
20
8.708420
30
0
11
5.438948
21
8.627079
31
0
0
LINE
8
PERFIL
10
5.438948
20
8.627079
30
0
11
5.322394
21
8.542471
31
0
0
LINE
8
PERFIL
10
5.322394
20
8.542471
30
0
11
5.210788
21
8.454472
31
0
0
LINE
8
PERFIL
10
5.210788
20
8.454472
30
0
11
5.104610
21
8.362881
31
0
0
LINE
8
PERFIL
10
5.104610
20
8.362881
30
0
11
5.004573
21
8.267356
31
0
0
LINE
8
PERFIL
10
5.004573
20
8.267356
30
0
11
4.911929
21
8.167232
31
0
0
LINE
8
PERFIL
10
4.911929
20
8.167232
30
0
11
4.830285
21
8.060432
31
0
0
LINE
8
PERFIL
10
4.830285
20
8.060432
30
0
11
4.497747
21
7.505516
31
0
0
LINE
8
PERFIL
10
3.428381
20
8.050385
30
0
11
3.681856
21
8.645586
31
0
0
LINE
8
PERFIL
10
3.681856
20
8.645586
30
0
11
3.720270
21
8.774413
31
0
0
LINE
8
PERFIL
10
3.720270
20
8.774413
30
0
11
3.746818
21
8.908214
31
0
0
LINE
8
PERFIL
10
3.746818
20
8.908214
30
0
11
3.765298
21
9.045294
31
0
0
LINE
8
PERFIL
10
3.765298
20
9.045294
30
0
11
3.776987
21
9.185030
31
0
0
LINE
8
PERFIL
10
3.776987
20
9.185030
30
0
11
3.782579
21
9.327045
31
0
0
LINE
8
PERFIL
10
3.782579
20
9.327045
30
0
11
3.782520
21
9.471071
31
0
0
LINE
8
PERFIL
10
3.782520
20
9.471071
30
0
11
3.777114
21
9.616898
31
0
0
LINE
8
PERFIL
10
3.777114
20
9.616898
30
0
11
3.766585
21
9.764348
31
0
0
LINE
8
PERFIL
10
3.766585
20
9.764348
30
0
11
3.751100
21
9.913272
31
0
0
LINE
8
PERFIL
10
3.751100
20
9.913272
30
0
11
3.730790
21
10.063531
31
0
0
LINE
8
PERFIL
10
3.730790
20
10.063531
30
0
11
3.705756
21
10.215001
31
0
0
LINE
8
PERFIL
10
3.705756
20
10.215001
30
0
11
3.676080
21
10.367567
31
0
0
LINE
8
PERFIL
10
3.119892
20
10.548283
30
0
11
3.006208
21
10.442298
31
0
0
LINE
8
PERFIL
10
3.006208
20
10.442298
30
0
11
2.896923
21
10.334471
31
0
0
LINE
8
PERFIL
10
2.896923
20
10.334471
30
0
11
2.792171
21
10.224847
31
0
0
LINE
8
PERFIL
10
2.792171
20
10.224847
30
0
11
2.692109
21
10.113467
31
0
0
LINE
8
PERFIL
10
2.692109
20
10.113467
30
0
11
2.596921
21
10.000366
31
0
0
LINE
8
PERFIL
10
2.596921
20
10.000366
30
0
11
2.506833
21
9.885567
31
0
0
LINE
8
PERFIL
10
2.506833
20
9.885567
30
0
11
2.422129
21
9.769083
31
0
0
LINE
8
PERFIL
10
2.422129
20
9.769083
30
0
11
2.343179
21
9.650902
31
0
0
LINE
8
PERFIL
10
2.343179
20
9.650902
30
0
11
2.270500
21
9.530984
31
0
0
LINE
8
PERFIL
10
2.270500
20
9.530984
30
0
11
2.204878
21
9.409221
31
0
0
LINE
8
PERFIL
10
2.204878
20
9.409221
30
0
11
2.147709
21
9.285369
31
0
0
LINE
8
PERFIL
10
2.147709
20
9.285369
30
0
11
2.103064
21
9.158567
31
0
0
LINE
8
PERFIL
10
2.103064
20
9.158567
30
0
11
1.958279
21
8.528050
31
0
0
LINE
8
PERFIL
10
0.772878
20
8.715799
30
0
11
0.830021
21
9.360197
31
0
0
LINE
8
PERFIL
10
0.830021
20
9.360197
30
0
11
0.826744
21
9.494589
31
0
0
LINE
8
PERFIL
10
0.826744
20
9.494589
30
0
11
0.810646
21
9.630046
31
0
0
LINE
8
PERFIL
10
0.810646
20
9.630046
30
0
11
0.785862
21
9.766127
31
0
0
LINE
8
PERFIL
10
0.785862
20
9.766127
30
0
11
0.753797
21
9.902636
31
0
0
LINE
8
PERFIL
10
0.753797
20
9.902636
30
0
11
0.715231
21
10.039429
31
0
0
LINE
8
PERFIL
10
0.715231
20
10.039429
30
0
11
0.670668
21
10.176387
31
0
0
LINE
8
PERFIL
10
0.670668
20
10.176387
30
0
11
0.620464
21
10.313406
31
0
0
LINE
8
PERFIL
10
0.620464
20
10.313406
30
0
11
0.564886
21
10.450386
31
0
0
LINE
8
PERFIL
10
0.564886
20
10.450386
30
0
11
0.504139
21
10.587235
31
0
0
LINE
8
PERFIL
10
0.504139
20
10.587235
30
0
11
0.438390
21
10.723864
31
0
0
LINE
8
PERFIL
10
0.438390
20
10.723864
30
0
11
0.367774
21
10.860185
31
0
0
LINE
8
PERFIL
10
0.367774
20
10.860185
30
0
11
0.292406
21
10.996113
31
0
0
LINE
8
PERFIL
10
-0.292406
20
10.996113
30
0
11
-0.367774
21
10.860185
31
0
0
LINE
8
PERFIL
10
-0.367774
20
10.860185
30
0
11
-0.438390
21
10.723864
31
0
0
LINE
8
PERFIL
10
-0.438390
20
10.723864
30
0
11
-0.504139
21
10.587235
31
0
0
LINE
8
PERFIL
10
-0.504139
20
10.587235
30
0
11
-0.564886
21
10.450386
31
0
0
LINE
8
PERFIL
10
-0.564886
20
10.450386
30
0
11
-0.620464
21
10.313406
31
0
0
LINE
8
PERFIL
10
-0.620464
20
10.313406
30
0
11
-0.670668
21
10.176387
31
0
0
LINE
8
PERFIL
10
-0.670668
20
10.176387
30
0
11
-0.715231
21
10.039429
31
0
0
LINE
8
PERFIL
10
-0.715231
20
10.039429
30
0
11
-0.753797
21
9.902636
31
0
0
LINE
8
PERFIL
10
-0.753797
20
9.902636
30
0
11
-0.785862
21
9.766127
31
0
0
LINE
8
PERFIL
10
-0.785862
20
9.766127
30
0
11
-0.810646
21
9.630046
31
0
0
LINE
8
PERFIL
10
-0.810646
20
9.630046
30
0
11
-0.826744
21
9.494589
31
0
0
LINE
8
PERFIL
10
-0.826744
20
9.494589
30
0
11
-0.830021
21
9.360197
31
0
0
LINE
8
PERFIL
10
-0.830021
20
9.360197
30
0
11
-0.772878
21
8.715799
31
0
0
LINE
8
PERFIL
10
-1.958279
20
8.528050
30
0
11
-2.103064
21
9.158567
31
0
0
LINE
8
PERFIL
10
-2.103064
20
9.158567
30
0
11
-2.147709
21
9.285369
31
0
0
LINE
8
PERFIL
10
-2.147709
20
9.285369
30
0
11
-2.204878
21
9.409221
31
0
0
LINE
8
PERFIL
10
-2.204878
20
9.409221
30
0
11
-2.270500
21
9.530984
31
0
0
LINE
8
PERFIL
10
-2.270500
20
9.530984
30
0
11
-2.343179
21
9.650902
31
0
0
LINE
8
PERFIL
10
-2.343179
20
9.650902
30
0
11
-2.422129
21
9.769083
31
0
0
LINE
8
PERFIL
10
-2.422129
20
9.769083
30
0
11
-2.506833
21
9.885567
31
0
0
LINE
8
PERFIL
10
-2.506833
20
9.885567
30
0
11
-2.596921
21
10.000366
31
0
0
LINE
8
PERFIL
10
-2.596921
20
10.000366
30
0
11
-2.692109
21
10.113467
31
0
0
LINE
8
PERFIL
10
-2.692109
20
10.113467
30
0
11
-2.792171
21
10.224847
31
0
0
LINE
8
PERFIL
10
-2.792171
20
10.224847
30
0
11
-2.896923
21
10.334471
31
0
0
LINE
8
PERFIL
10
-2.896923
20
10.334471
30
0
11
-3.006208
21
10.442298
31
0
0
LINE
8
PERFIL
10
-3.006208
20
10.442298
30
0
11
-3.119892
21
10.548283
31
0
0
LINE
8
PERFIL
10
-3.676080
20
10.367567
30
0
11
-3.705756
21
10.215001
31
0
0
LINE
8
PERFIL
10
-3.705756
20
10.215001
30
0
11
-3.730790
21
10.063531
31
0
0
LINE
8
PERFIL
10
-3.730790
20
10.063531
30
0
11
-3.751100
21
9.913272
31
0
0
LINE
8
PERFIL
10
-3.751100
20
9.913272
30
0
11
-3.766585
21
9.764348
31
0
0
LINE
8
PERFIL
10
-3.766585
20
9.764348
30
0
11
-3.777114
21
9.616898
31
0
0
LINE
8
PERFIL
10
-3.777114
20
9.616898
30
0
11
-3.782520
21
9.471071
31
0
0
LINE
8
PERFIL
10
-3.782520
20
9.471071
30
0
11
-3.782579
21
9.327045
31
0
0
LINE
8
PERFIL
10
-3.782579
20
9.327045
30
0
11
-3.776987
21
9.185030
31
0
0
LINE
8
PERFIL
10
-3.776987
20
9.185030
30
0
11
-3.765298
21
9.045294
31
0
0
LINE
8
PERFIL
10
-3.765298
20
9.045294
30
0
11
-3.746818
21
8.908214
31
0
0
LINE
8
PERFIL
10
-3.746818
20
8.908214
30
0
11
-3.720270
21
8.774413
31
0
0
LINE
8
PERFIL
10
-3.720270
20
8.774413
30
0
11
-3.681856
21
8.645586
31
0
0
LINE
8
PERFIL
10
-3.681856
20
8.645586
30
0
11
-3.428381
21
8.050385
31
0
0
LINE
8
PERFIL
10
-4.497747
20
7.505516
30
0
11
-4.830285
21
8.060432
31
0
0
LINE
8
PERFIL
10
-4.830285
20
8.060432
30
0
11
-4.911929
21
8.167232
31
0
0
LINE
8
PERFIL
10
-4.911929
20
8.167232
30
0
11
-5.004573
21
8.267356
31
0
0
LINE
8
PERFIL
10
-5.004573
20
8.267356
30
0
11
-5.104610
21
8.362881
31
0
0
LINE
8
PERFIL
10
-5.104610
20
8.362881
30
0
11
-5.210788
21
8.454472
31
0
0
LINE
8
PERFIL
10
-5.210788
20
8.454472
30
0
11
-5.322394
21
8.542471
31
0
0
LINE
8
PERFIL
10
-5.322394
20
8.542471
30
0
11
-5.438948
21
8.627079
31
0
0
LINE
8
PERFIL
10
-5.438948
20
8.627079
30
0
11
-5.560102
21
8.708420
31
0
0
LINE
8
PERFIL
10
-5.560102
20
8.708420
30
0
11
-5.685581
21
8.786571
31
0
0
LINE
8
PERFIL
10
-5.685581
20
8.786571
30
0
11
-5.815164
21
8.861579
31
0
0
LINE
8
PERFIL
10
-5.815164
20
8.861579
30
0
11
-5.948664
21
8.933468
31
0
0
LINE
8
PERFIL
10
-5.948664
20
8.933468
30
0
11
-6.085921
21
9.002247
31
0
0
LINE
8
PERFIL
10
-6.085921
20
9.002247
30
0
11
-6.226792
21
9.067914
31
0
0
LINE
8
PERFIL
10
-6.699914
20
8.724171
30
0
11
-6.680992
21
8.569902
31
0
0
LINE
8
PERFIL
10
-6.680992
20
8.569902
30
0
11
-6.657994
21
8.418109
31
0
0
LINE
8
PERFIL
10
-6.657994
20
8.418109
30
0
11
-6.630878
21
8.268928
31
0
0
LINE
8
PERFIL
10
-6.630878
20
8.268928
30
0
11
-6.599585
21
8.122508
31
0
0
LINE
8
PERFIL
10
-6.599585
20
8.122508
30
0
11
-6.564034
21
7.979021
31
0
0
LINE
8
PERFIL
10
-6.564034
20
7.979021
30
0
11
-6.524112
21
7.838661
31
0
0
LINE
8
PERFIL
10
-6.524112
20
7.838661
30
0
11
-6.479662
21
7.701666
31
0
0
LINE
8
PERFIL
10
-6.479662
20
7.701666
30
0
11
-6.430458
21
7.568330
31
0
0
LINE
8
PERFIL
10
-6.430458
20
7.568330
30
0
11
-6.376161
21
7.439045
31
0
0
LINE
8
PERFIL
10
-6.376161
20
7.439045
30
0
11
-6.316225
21
7.314385
31
0
0
LINE
8
PERFIL
10
-6.316225
20
7.314385
30
0
11
-6.249630
21
7.195336
31
0
0
LINE
8
PERFIL
10
-6.249630
20
7.195336
30
0
11
-6.173286
21
7.084685
31
0
0
LINE
8
PERFIL
10
-6.173286
20
7.084685
30
0
11
-5.748290
21
6.596943
31
0
0
LINE
8
PERFIL
10
-6.596943
20
5.748290
30
0
11
-7.084685
21
6.173286
31
0
0
LINE
8
PERFIL
10
-7.084685
20
6.173286
30
0
11
-7.195336
21
6.249630
31
0
0
LINE
8
PERFIL
10
-7.195336
20
6.249630
30
0
11
-7.314385
21
6.316225
31
0
0
LINE
8
PERFIL
10
-7.314385
20
6.316225
30
0
11
-7.439045
21
6.376161
31
0
0
LINE
8
PERFIL
10
-7.439045
20
6.376161
30
0
11
-7.568330
21
6.430458
31
0
0
LINE
8
PERFIL
10
-7.568330
20
6.430458
30
0
11
-7.701666
21
6.479662
31
0
0
LINE
8
PERFIL
10
-7.701666
20
6.479662
30
0
11
-7.838661
21
6.524112
31
0
0
LINE
8
PERFIL
10
-7.838661
20
6.524112
30
0
11
-7.979021
21
6.564034
31
0
0
LINE
8
PERFIL
10
-7.979021
20
6.564034
30
0
11
-8.122508
21
6.599585
31
0
0
LINE
8
PERFIL
10
-8.122508
20
6.599585
30
0
11
-8.268928
21
6.630878
31
0
0
LINE
8
PERFIL
10
-8.268928
20
6.630878
30
0
11
-8.418109
21
6.657994
31
0
0
LINE
8
PERFIL
10
-8.418109
20
6.657994
30
0
11
-8.569902
21
6.680992
31
0
0
LINE
8
PERFIL
10
-8.569902
20
6.680992
30
0
11
-8.724171
21
6.699914
31
0
0
LINE
8
PERFIL
10
-9.067914
20
6.226792
30
0
11
-9.002247
21
6.085921
31
0
0
LINE
8
PERFIL
10
-9.002247
20
6.085921
30
0
11
-8.933468
21
5.948664
31
0
0
LINE
8
PERFIL
10
-8.933468
20
5.948664
30
0
11
-8.861579
21
5.815164
31
0
0
LINE
8
PERFIL
10
-8.861579
20
5.815164
30
0
11
-8.786571
21
5.685581
31
0
0
LINE
8
PERFIL
10
-8.786571
20
5.685581
30
0
11
-8.708420
21
5.560102
31
0
0
LINE
8
PERFIL
10
-8.708420
20
5.560102
30
0
11
-8.627079
21
5.438948
31
0
0
LINE
8
PERFIL
10
-8.627079
20
5.438948
30
0
11
-8.542471
21
5.322394
31
0
0
LINE
8
PERFIL
10
-8.542471
20
5.322394
30
0
11
-8.454472
21
5.210788
31
0
0
LINE
8
PERFIL
10
-8.454472
20
5.210788
30
0
11
-8.362881
21
5.104610
31
0
0
LINE
8
PERFIL
10
-8.362881
20
5.104610
30
0
11
-8.267356
21
5.004573
31
0
0
LINE
8
PERFIL
10
-8.267356
20
5.004573
30
0
11
-8.167232
21
4.911929
31
0
0
LINE
8
PERFIL
10
-8.167232
20
4.911929
30
0
11
-8.060432
21
4.830285
31
0
0
LINE
8
PERFIL
10
-8.060432
20
4.830285
30
0
11
-7.505516
21
4.497747
31
0
0
LINE
8
PERFIL
10
-8.050385
20
3.428381
30
0
11
-8.645586
21
3.681856
31
0
0
LINE
8
PERFIL
10
-8.645586
20
3.681856
30
0
11
-8.774413
21
3.720270
31
0
0
LINE
8
PERFIL
10
-8.774413
20
3.720270
30
0
11
-8.908214
21
3.746818
31
0
0
LINE
8
PERFIL
10
-8.908214
20
3.746818
30
0
11
-9.045294
21
3.765298
31
0
0
LINE
8
PERFIL
10
-9.045294
20
3.765298
30
0
11
-9.185030
21
3.776987
31
0
0
LINE
8
PERFIL
10
-9.185030
20
3.776987
30
0
11
-9.327045
21
3.782579
31
0
0
LINE
8
PERFIL
10
-9.327045
20
3.782579
30
0
11
-9.471071
21
3.782520
31
0
0
LINE
8
PERFIL
10
-9.471071
20
3.782520
30
0
11
-9.616898
21
3.777114
31
0
0
LINE
8
PERFIL
10
-9.616898
20
3.777114
30
0
11
-9.764348
21
3.766585
31
0
0
LINE
8
PERFIL
10
-9.764348
20
3.766585
30
0
11
-9.913272
21
3.751100
31
0
0
LINE
8
PERFIL
10
-9.913272
20
3.751100
30
0
11
-10.063531
21
3.730790
31
0
0
LINE
8
PERFIL
10
-10.063531
20
3.730790
30
0
11
-10.215001
21
3.705756
31
0
0
LINE
8
PERFIL
10
-10.215001
20
3.705756
30
0
11
-10.367567
21
3.676080
31
0
0
LINE
8
PERFIL
10
-10.548283
20
3.119892
30
0
11
-10.442298
21
3.006208
31
0
0
LINE
8
PERFIL
10
-10.442298
20
3.006208
30
0
11
-10.334471
21
2.896923
31
0
0
LINE
8
PERFIL
10
-10.334471
20
2.896923
30
0
11
-10.224847
21
2.792171
31
0
0
LINE
8
PERFIL
10
-10.224847
20
2.792171
30
0
11
-10.113467
21
2.692109
31
0
0
LINE
8
PERFIL
10
-10.113467
20
2.692109
30
0
11
-10.000366
21
2.596921
31
0
0
LINE
8
PERFIL
10
-10.000366
20
2.596921
30
0
11
-9.885567
21
2.506833
31
0
0
LINE
8
PERFIL
10
-9.885567
20
2.506833
30
0
11
-9.769083
21
2.422129
31
0
0
LINE
8
PERFIL
10
-9.769083
20
2.422129
30
0
11
-9.650902
21
2.343179
31
0
0
LINE
8
PERFIL
10
-9.650902
20
2.343179
30
0
11
-9.530984
21
2.270500
31
0
0
LINE
8
PERFIL
10
-9.530984
20
2.270500
30
0
11
-9.409221
21
2.204878
31
0
0
LINE
8
PERFIL
10
-9.409221
20
2.204878
30
0
11
-9.285369
21
2.147709
31
0
0
LINE
8
PERFIL
10
-9.285369
20
2.147709
30
0
11
-9.158567
21
2.103064
31
0
0
LINE
8
PERFIL
10
-9.158567
20
2.103064
30
0
11
-8.528050
21
1.958279
31
0
0
LINE
8
PERFIL
10
-8.715799
20
0.772878
30
0
11
-9.360197
21
0.830021
31
0
0
LINE
8
PERFIL
10
-9.360197
20
0.830021
30
0
11
-9.494589
21
0.826744
31
0
0
LINE
8
PERFIL
10
-9.494589
20
0.826744
30
0
11
-9.630046
21
0.810646
31
0
0
LINE
8
PERFIL
10
-9.630046
20
0.810646
30
0
11
-9.766127
21
0.785862
31
0
0
LINE
8
PERFIL
10
-9.766127
20
0.785862
30
0
11
-9.902636
21
0.753797
31
0
0
LINE
8
PERFIL
10
-9.902636
20
0.753797
30
0
11
-10.039429
21
0.715231
31
0
0
LINE
8
PERFIL
10
-10.039429
20
0.715231
30
0
11
-10.176387
21
0.670668
31
0
0
LINE
8
PERFIL
10
-10.176387
20
0.670668
30
0
11
-10.313406
21
0.620464
31
0
0
LINE
8
PERFIL
10
-10.313406
20
0.620464
30
0
11
-10.450386
21
0.564886
31
0
0
LINE
8
PERFIL
10
-10.450386
20
0.564886
30
0
11
-10.587235
21
0.504139
31
0
0
LINE
8
PERFIL
10
-10.587235
20
0.504139
30
0
11
-10.723864
21
0.438390
31
0
0
LINE
8
PERFIL
10
-10.723864
20
0.438390
30
0
11
-10.860185
21
0.367774
31
0
0
LINE
8
PERFIL
10
-10.860185
20
0.367774
30
0
11
-10.996113
21
0.292406
31
0
0
LINE
8
PERFIL
10
-10.996113
20
-0.292406
30
0
11
-10.860185
21
-0.367774
31
0
0
LINE
8
PERFIL
10
-10.860185
20
-0.367774
30
0
11
-10.723864
21
-0.438390
31
0
0
LINE
8
PERFIL
10
-10.723864
20
-0.438390
30
0
11
-10.587235
21
-0.504139
31
0
0
LINE
8
PERFIL
10
-10.587235
20
-0.504139
30
0
11
-10.450386
21
-0.564886
31
0
0
LINE
8
PERFIL
10
-10.450386
20
-0.564886
30
0
11
-10.313406
21
-0.620464
31
0
0
LINE
8
PERFIL
10
-10.313406
20
-0.620464
30
0
11
-10.176387
21
-0.670668
31
0
0
LINE
8
PERFIL
10
-10.176387
20
-0.670668
30
0
11
-10.039429
21
-0.715231
31
0
0
LINE
8
PERFIL
10
-10.039429
20
-0.715231
30
0
11
-9.902636
21
-0.753797
31
0
0
LINE
8
PERFIL
10
-9.902636
20
-0.753797
30
0
11
-9.766127
21
-0.785862
31
0
0
LINE
8
PERFIL
10
-9.766127
20
-0.785862
30
0
11
-9.630046
21
-0.810646
31
0
0
LINE
8
PERFIL
10
-9.630046
20
-0.810646
30
0
11
-9.494589
21
-0.826744
31
0
0
LINE
8
PERFIL
10
-9.494589
20
-0.826744
30
0
11
-9.360197
21
-0.830021
31
0
0
LINE
8
PERFIL
10
-9.360197
20
-0.830021
30
0
11
-8.715799
21
-0.772878
31
0
0
LINE
8
PERFIL
10
-8.528050
20
-1.958279
30
0
11
-9.158567
21
-2.103064
31
0
0
LINE
8
PERFIL
10
-9.158567
20
-2.103064
30
0
11
-9.285369
21
-2.147709
31
0
0
LINE
8
PERFIL
10
-9.285369
20
-2.147709
30
0
11
-9.409221
21
-2.204878
31
0
0
LINE
8
PERFIL
10
-9.409221
20
-2.204878
30
0
11
-9.530984
21
-2.270500
31
0
0
LINE
8
PERFIL
10
-9.530984
20
-2.270500
30
0
11
-9.650902
21
-2.343179
31
0
0
LINE
8
PERFIL
10
-9.650902
20
-2.343179
30
0
11
-9.769083
21
-2.422129
31
0
0
LINE
8
PERFIL
10
-9.769083
20
-2.422129
30
0
11
-9.885567
21
-2.506833
31
0
0
LINE
8
PERFIL
10
-9.885567
20
-2.506833
30
0
11
-10.000366
21
-2.596921
31
0
0
LINE
8
PERFIL
10
-10.000366
20
-2.596921
30
0
11
-10.113467
21
-2.692109
31
0
0
LINE
8
PERFIL
10
-10.113467
20
-2.692109
30
0
11
-10.224847
21
-2.792171
31
0
0
LINE
8
PERFIL
10
-10.224847
20
-2.792171
30
0
11
-10.334471
21
-2.896923
31
0
0
LINE
8
PERFIL
10
-10.334471
20
-2.896923
30
0
11
-10.442298
21
-3.006208
31
0
0
LINE
8
PERFIL
10
-10.442298
20
-3.006208
30
0
11
-10.548283
21
-3.119892
31
0
0
LINE
8
PERFIL
10
-10.367567
20
-3.676080
30
0
11
-10.215001
21
-3.705756
31
0
0
LINE
8
PERFIL
10
-10.215001
20
-3.705756
30
0
11
-10.063531
21
-3.730790
31
0
0
LINE
8
PERFIL
10
-10.063531
20
-3.730790
30
0
11
-9.913272
21
-3.751100
31
0
0
LINE
8
PERFIL
10
-9.913272
20
-3.751100
30
0
11
-9.764348
21
-3.766585
31
0
0
LINE
8
PERFIL
10
-9.764348
20
-3.766585
30
0
11
-9.616898
21
-3.777114
31
0
0
LINE
8
PERFIL
10
-9.616898
20
-3.777114
30
0
11
-9.471071
21
-3.782520
31
0
0
LINE
8
PERFIL
10
-9.471071
20
-3.782520
30
0
11
-9.327045
21
-3.782579
31
0
0
LINE
8
PERFIL
10
-9.327045
20
-3.782579
30
0
11
-9.185030
21
-3.776987
31
0
0
LINE
8
PERFIL
10
-9.185030
20
-3.776987
30
0
11
-9.045294
21
-3.765298
31
0
0
LINE
8
PERFIL
10
-9.045294
20
-3.765298
30
0
11
-8.908214
21
-3.746818
31
0
0
LINE
8
PERFIL
10
-8.908214
20
-3.746818
30
0
11
-8.774413
21
-3.720270
31
0
0
LINE
8
PERFIL
10
-8.774413
20
-3.720270
30
0
11
-8.645586
21
-3.681856
31
0
0
LINE
8
PERFIL
10
-8.645586
20
-3.681856
30
0
11
-8.050385
21
-3.428381
31
0
0
LINE
8
PERFIL
10
-7.505516
20
-4.497747
30
0
11
-8.060432
21
-4.830285
31
0
0
LINE
8
PERFIL
10
-8.060432
20
-4.830285
30
0
11
-8.167232
21
-4.911929
31
0
0
LINE
8
PERFIL
10
-8.167232
20
-4.911929
30
0
11
-8.267356
21
-5.004573
31
0
0
LINE
8
PERFIL
10
-8.267356
20
-5.004573
30
0
11
-8.362881
21
-5.104610
31
0
0
LINE
8
PERFIL
10
-8.362881
20
-5.104610
30
0
11
-8.454472
21
-5.210788
31
0
0
LINE
8
PERFIL
10
-8.454472
20
-5.210788
30
0
11
-8.542471
21
-5.322394
31
0
0
LINE
8
PERFIL
10
-8.542471
20
-5.322394
30
0
11
-8.627079
21
-5.438948
31
0
0
LINE
8
PERFIL
10
-8.627079
20
-5.438948
30
0
11
-8.708420
21
-5.560102
31
0
0
LINE
8
PERFIL
10
-8.708420
20
-5.560102
30
0
11
-8.786571
21
-5.685581
31
0
0
LINE
8
PERFIL
10
-8.786571
20
-5.685581
30
0
11
-8.861579
21
-5.815164
31
0
0
LINE
8
PERFIL
10
-8.861579
20
-5.815164
30
0
11
-8.933468
21
-5.948664
31
0
0
LINE
8
PERFIL
10
-8.933468
20
-5.948664
30
0
11
-9.002247
21
-6.085921
31
0
0
LINE
8
PERFIL
10
-9.002247
20
-6.085921
30
0
11
-9.067914
21
-6.226792
31
0
0
LINE
8
PERFIL
10
-8.724171
20
-6.699914
30
0
11
-8.569902
21
-6.680992
31
0
0
LINE
8
PERFIL
10
-8.569902
20
-6.680992
30
0
11
-8.418109
21
-6.657994
31
0
0
LINE
8
PERFIL
10
-8.418109
20
-6.657994
30
0
11
-8.268928
21
-6.630878
31
0
0
LINE
8
PERFIL
10
-8.268928
20
-6.630878
30
0
11
-8.122508
21
-6.599585
31
0
0
LINE
8
PERFIL
10
-8.122508
20
-6.599585
30
0
11
-7.979021
21
-6.564034
31
0
0
LINE
8
PERFIL
10
-7.979021
20
-6.564034
30
0
11
-7.838661
21
-6.524112
31
0
0
LINE
8
PERFIL
10
-7.838661
20
-6.524112
30
0
11
-7.701666
21
-6.479662
31
0
0
LINE
8
PERFIL
10
-7.701666
20
-6.479662
30
0
11
-7.568330
21
-6.430458
31
0
0
LINE
8
PERFIL
10
-7.568330
20
-6.430458
30
0
11
-7.439045
21
-6.376161
31
0
0
LINE
8
PERFIL
10
-7.439045
20
-6.376161
30
0
11
-7.314385
21
-6.316225
31
0
0
LINE
8
PERFIL
10
-7.314385
20
-6.316225
30
0
11
-7.195336
21
-6.249630
31
0
0
LINE
8
PERFIL
10
-7.195336
20
-6.249630
30
0
11
-7.084685
21
-6.173286
31
0
0
LINE
8
PERFIL
10
-7.084685
20
-6.173286
30
0
11
-6.596943
21
-5.748290
31
0
0
LINE
8
PERFIL
10
-5.748290
20
-6.596943
30
0
11
-6.173286
21
-7.084685
31
0
0
LINE
8
PERFIL
10
-6.173286
20
-7.084685
30
0
11
-6.249630
21
-7.195336
31
0
0
LINE
8
PERFIL
10
-6.249630
20
-7.195336
30
0
11
-6.316225
21
-7.314385
31
0
0
LINE
8
PERFIL
10
-6.316225
20
-7.314385
30
0
11
-6.376161
21
-7.439045
31
0
0
LINE
8
PERFIL
10
-6.376161
20
-7.439045
30
0
11
-6.430458
21
-7.568330
31
0
0
LINE
8
PERFIL
10
-6.430458
20
-7.568330
30
0
11
-6.479662
21
-7.701666
31
0
0
LINE
8
PERFIL
10
-6.479662
20
-7.701666
30
0
11
-6.524112
21
-7.838661
31
0
0
LINE
8
PERFIL
10
-6.524112
20
-7.838661
30
0
11
-6.564034
21
-7.979021
31
0
0
LINE
8
PERFIL
10
-6.564034
20
-7.979021
30
0
11
-6.599585
21
-8.122508
31
0
0
LINE
8
PERFIL
10
-6.599585
20
-8.122508
30
0
11
-6.630878
21
-8.268928
31
0
0
LINE
8
PERFIL
10
-6.630878
20
-8.268928
30
0
11
-6.657994
21
-8.418109
31
0
0
LINE
8
PERFIL
10
-6.657994
20
-8.418109
30
0
11
-6.680992
21
-8.569902
31
0
0
LINE
8
PERFIL
10
-6.680992
20
-8.569902
30
0
11
-6.699914
21
-8.724171
31
0
0
LINE
8
PERFIL
10
-6.226792
20
-9.067914
30
0
11
-6.085921
21
-9.002247
31
0
0
LINE
8
PERFIL
10
-6.085921
20
-9.002247
30
0
11
-5.948664
21
-8.933468
31
0
0
LINE
8
PERFIL
10
-5.948664
20
-8.933468
30
0
11
-5.815164
21
-8.861579
31
0
0
LINE
8
PERFIL
10
-5.815164
20
-8.861579
30
0
11
-5.685581
21
-8.786571
31
0
0
LINE
8
PERFIL
10
-5.685581
20
-8.786571
30
0
11
-5.560102
21
-8.708420
31
0
0
LINE
8
PERFIL
10
-5.560102
20
-8.708420
30
0
11
-5.438948
21
-8.627079
31
0
0
LINE
8
PERFIL
10
-5.438948
20
-8.627079
30
0
11
-5.322394
21
-8.542471
31
0
0
LINE
8
PERFIL
10
-5.322394
20
-8.542471
30
0
11
-5.210788
21
-8.454472
31
0
0
LINE
8
PERFIL
10
-5.210788
20
-8.454472
30
0
11
-5.104610
21
-8.362881
31
0
0
LINE
8
PERFIL
10
-5.104610
20
-8.362881
30
0
11
-5.004573
21
-8.267356
31
0
0
LINE
8
PERFIL
10
-5.004573
20
-8.267356
30
0
11
-4.911929
21
-8.167232
31
0
0
LINE
8
PERFIL
10
-4.911929
20
-8.167232
30
0
11
-4.830285
21
-8.060432
31
0
0
LINE
8
PERFIL
10
-4.830285
20
-8.060432
30
0
11
-4.497747
21
-7.505516
31
0
0
LINE
8
PERFIL
10
-3.428381
20
-8.050385
30
0
11
-3.681856
21
-8.645586
31
0
0
LINE
8
PERFIL
10
-3.681856
20
-8.645586
30
0
11
-3.720270
21
-8.774413
31
0
0
LINE
8
PERFIL
10
-3.720270
20
-8.774413
30
0
11
-3.746818
21
-8.908214
31
0
0
LINE
8
PERFIL
10
-3.746818
20
-8.908214
30
0
11
-3.765298
21
-9.045294
31
0
0
LINE
8
PERFIL
10
-3.765298
20
-9.045294
30
0
11
-3.776987
21
-9.185030
31
0
0
LINE
8
PERFIL
10
-3.776987
20
-9.185030
30
0
11
-3.782579
21
-9.327045
31
0
0
LINE
8
PERFIL
10
-3.782579
20
-9.327045
30
0
11
-3.782520
21
-9.471071
31
0
0
LINE
8
PERFIL
10
-3.782520
20
-9.471071
30
0
11
-3.777114
21
-9.616898
31
0
0
LINE
8
PERFIL
10
-3.777114
20
-9.616898
30
0
11
-3.766585
21
-9.764348
31
0
0
LINE
8
PERFIL
10
-3.766585
20
-9.764348
30
0
11
-3.751100
21
-9.913272
31
0
0
LINE
8
PERFIL
10
-3.751100
20
-9.913272
30
0
11
-3.730790
21
-10.063531
31
0
0
LINE
8
PERFIL
10
-3.730790
20
-10.063531
30
0
11
-3.705756
21
-10.215001
31
0
0
LINE
8
PERFIL
10
-3.705756
20
-10.215001
30
0
11
-3.676080
21
-10.367567
31
0
0
LINE
8
PERFIL
10
-3.119892
20
-10.548283
30
0
11
-3.006208
21
-10.442298
31
0
0
LINE
8
PERFIL
10
-3.006208
20
-10.442298
30
0
11
-2.896923
21
-10.334471
31
0
0
LINE
8
PERFIL
10
-2.896923
20
-10.334471
30
0
11
-2.792171
21
-10.224847
31
0
0
LINE
8
PERFIL
10
-2.792171
20
-10.224847
30
0
11
-2.692109
21
-10.113467
31
0
0
LINE
8
PERFIL
10
-2.692109
20
-10.113467
30
0
11
-2.596921
21
-10.000366
31
0
0
LINE
8
PERFIL
10
-2.596921
20
-10.000366
30
0
11
-2.506833
21
-9.885567
31
0
0
LINE
8
PERFIL
10
-2.506833
20
-9.885567
30
0
11
-2.422129
21
-9.769083
31
0
0
LINE
8
PERFIL
10
-2.422129
20
-9.769083
30
0
11
-2.343179
21
-9.650902
31
0
0
LINE
8
PERFIL
10
-2.343179
20
-9.650902
30
0
11
-2.270500
21
-9.530984
31
0
0
LINE
8
PERFIL
10
-2.270500
20
-9.530984
30
0
11
-2.204878
21
-9.409221
31
0
0
LINE
8
PERFIL
10
-2.204878
20
-9.409221
30
0
11
-2.147709
21
-9.285369
31
0
0
LINE
8
PERFIL
10
-2.147709
20
-9.285369
30
0
11
-2.103064
21
-9.158567
31
0
0
LINE
8
PERFIL
10
-2.103064
20
-9.158567
30
0
11
-1.958279
21
-8.528050
31
0
0
LINE
8
PERFIL
10
-0.772878
20
-8.715799
30
0
11
-0.830021
21
-9.360197
31
0
0
LINE
8
PERFIL
10
-0.830021
20
-9.360197
30
0
11
-0.826744
21
-9.494589
31
0
0
LINE
8
PERFIL
10
-0.826744
20
-9.494589
30
0
11
-0.810646
21
-9.630046
31
0
0
LINE
8
PERFIL
10
-0.810646
20
-9.630046
30
0
11
-0.785862
21
-9.766127
31
0
0
LINE
8
PERFIL
10
-0.785862
20
-9.766127
30
0
11
-0.753797
21
-9.902636
31
0
0
LINE
8
PERFIL
10
-0.753797
20
-9.902636
30
0
11
-0.715231
21
-10.039429
31
0
0
LINE
8
PERFIL
10
-0.715231
20
-10.039429
30
0
11
-0.670668
21
-10.176387
31
0
0
LINE
8
PERFIL
10
-0.670668
20
-10.176387
30
0
11
-0.620464
21
-10.313406
31
0
0
LINE
8
PERFIL
10
-0.620464
20
-10.313406
30
0
11
-0.564886
21
-10.450386
31
0
0
LINE
8
PERFIL
10
-0.564886
20
-10.450386
30
0
11
-0.504139
21
-10.587235
31
0
0
LINE
8
PERFIL
10
-0.504139
20
-10.587235
30
0
11
-0.438390
21
-10.723864
31
0
0
LINE
8
PERFIL
10
-0.438390
20
-10.723864
30
0
11
-0.367774
21
-10.860185
31
0
0
LINE
8
PERFIL
10
-0.367774
20
-10.860185
30
0
11
-0.292406
21
-10.996113
31
0
0
LINE
8
PERFIL
10
0.292406
20
-10.996113
30
0
11
0.367774
21
-10.860185
31
0
0
LINE
8
PERFIL
10
0.367774
20
-10.860185
30
0
11
0.438390
21
-10.723864
31
0
0
LINE
8
PERFIL
10
0.438390
20
-10.723864
30
0
11
0.504139
21
-10.587235
31
0
0
LINE
8
PERFIL
10
0.504139
20
-10.587235
30
0
11
0.564886
21
-10.450386
31
0
0
LINE
8
PERFIL
10
0.564886
20
-10.450386
30
0
11
0.620464
21
-10.313406
31
0
0
LINE
8
PERFIL
10
0.620464
20
-10.313406
30
0
11
0.670668
21
-10.176387
31
0
0
LINE
8
PERFIL
10
0.670668
20
-10.176387
30
0
11
0.715231
21
-10.039429
31
0
0
LINE
8
PERFIL
10
0.715231
20
-10.039429
30
0
11
0.753797
21
-9.902636
31
0
0
LINE
8
PERFIL
10
0.753797
20
-9.902636
30
0
11
0.785862
21
-9.766127
31
0
0
LINE
8
PERFIL
10
0.785862
20
-9.766127
30
0
11
0.810646
21
-9.630046
31
0
0
LINE
8
PERFIL
10
0.810646
20
-9.630046
30
0
11
0.826744
21
-9.494589
31
0
0
LINE
8
PERFIL
10
0.826744
20
-9.494589
30
0
11
0.830021
21
-9.360197
31
0
0
LINE
8
PERFIL
10
0.830021
20
-9.360197
30
0
11
0.772878
21
-8.715799
31
0
0
LINE
8
PERFIL
10
1.958279
20
-8.528050
30
0
11
2.103064
21
-9.158567
31
0
0
LINE
8
PERFIL
10
2.103064
20
-9.158567
30
0
11
2.147709
21
-9.285369
31
0
0
LINE
8
PERFIL
10
2.147709
20
-9.285369
30
0
11
2.204878
21
-9.409221
31
0
0
LINE
8
PERFIL
10
2.204878
20
-9.409221
30
0
11
2.270500
21
-9.530984
31
0
0
LINE
8
PERFIL
10
2.270500
20
-9.530984
30
0
11
2.343179
21
-9.650902
31
0
0
LINE
8
PERFIL
10
2.343179
20
-9.650902
30
0
11
2.422129
21
-9.769083
31
0
0
LINE
8
PERFIL
10
2.422129
20
-9.769083
30
0
11
2.506833
21
-9.885567
31
0
0
LINE
8
PERFIL
10
2.506833
20
-9.885567
30
0
11
2.596921
21
-10.000366
31
0
0
LINE
8
PERFIL
10
2.596921
20
-10.000366
30
0
11
2.692109
21
-10.113467
31
0
0
LINE
8
PERFIL
10
2.692109
20
-10.113467
30
0
11
2.792171
21
-10.224847
31
0
0
LINE
8
PERFIL
10
2.792171
20
-10.224847
30
0
11
2.896923
21
-10.334471
31
0
0
LINE
8
PERFIL
10
2.896923
20
-10.334471
30
0
11
3.006208
21
-10.442298
31
0
0
LINE
8
PERFIL
10
3.006208
20
-10.442298
30
0
11
3.119892
21
-10.548283
31
0
0
LINE
8
PERFIL
10
3.676080
20
-10.367567
30
0
11
3.705756
21
-10.215001
31
0
0
LINE
8
PERFIL
10
3.705756
20
-10.215001
30
0
11
3.730790
21
-10.063531
31
0
0
LINE
8
PERFIL
10
3.730790
20
-10.063531
30
0
11
3.751100
21
-9.913272
31
0
0
LINE
8
PERFIL
10
3.751100
20
-9.913272
30
0
11
3.766585
21
-9.764348
31
0
0
LINE
8
PERFIL
10
3.766585
20
-9.764348
30
0
11
3.777114
21
-9.616898
31
0
0
LINE
8
PERFIL
10
3.777114
20
-9.616898
30
0
11
3.782520
21
-9.471071
31
0
0
LINE
8
PERFIL
10
3.782520
20
-9.471071
30
0
11
3.782579
21
-9.327045
31
0
0
LINE
8
PERFIL
10
3.782579
20
-9.327045
30
0
11
3.776987
21
-9.185030
31
0
0
LINE
8
PERFIL
10
3.776987
20
-9.185030
30
0
11
3.765298
21
-9.045294
31
0
0
LINE
8
PERFIL
10
3.765298
20
-9.045294
30
0
11
3.746818
21
-8.908214
31
0
0
LINE
8
PERFIL
10
3.746818
20
-8.908214
30
0
11
3.720270
21
-8.774413
31
0
0
LINE
8
PERFIL
10
3.720270
20
-8.774413
30
0
11
3.681856
21
-8.645586
31
0
0
LINE
8
PERFIL
10
3.681856
20
-8.645586
30
0
11
3.428381
21
-8.050385
31
0
0
LINE
8
PERFIL
10
4.497747
20
-7.505516
30
0
11
4.830285
21
-8.060432
31
0
0
LINE
8
PERFIL
10
4.830285
20
-8.060432
30
0
11
4.911929
21
-8.167232
31
0
0
LINE
8
PERFIL
10
4.911929
20
-8.167232
30
0
11
5.004573
21
-8.267356
31
0
0
LINE
8
PERFIL
10
5.004573
20
-8.267356
30
0
11
5.104610
21
-8.362881
31
0
0
LINE
8
PERFIL
10
5.104610
20
-8.362881
30
0
11
5.210788
21
-8.454472
31
0
0
LINE
8
PERFIL
10
5.210788
20
-8.454472
30
0
11
5.322394
21
-8.542471
31
0
0
LINE
8
PERFIL
10
5.322394
20
-8.542471
30
0
11
5.438948
21
-8.627079
31
0
0
LINE
8
PERFIL
10
5.438948
20
-8.627079
30
0
11
5.560102
21
-8.708420
31
0
0
LINE
8
PERFIL
10
5.560102
20
-8.708420
30
0
11
5.685581
21
-8.786571
31
0
0
LINE
8
PERFIL
10
5.685581
20
-8.786571
30
0
11
5.815164
21
-8.861579
31
0
0
LINE
8
PERFIL
10
5.815164
20
-8.861579
30
0
11
5.948664
21
-8.933468
31
0
0
LINE
8
PERFIL
10
5.948664
20
-8.933468
30
0
11
6.085921
21
-9.002247
31
0
0
LINE
8
PERFIL
10
6.085921
20
-9.002247
30
0
11
6.226792
21
-9.067914
31
0
0
LINE
8
PERFIL
10
6.699914
20
-8.724171
30
0
11
6.680992
21
-8.569902
31
0
0
LINE
8
PERFIL
10
6.680992
20
-8.569902
30
0
11
6.657994
21
-8.418109
31
0
0
LINE
8
PERFIL
10
6.657994
20
-8.418109
30
0
11
6.630878
21
-8.268928
31
0
0
LINE
8
PERFIL
10
6.630878
20
-8.268928
30
0
11
6.599585
21
-8.122508
31
0
0
LINE
8
PERFIL
10
6.599585
20
-8.122508
30
0
11
6.564034
21
-7.979021
31
0
0
LINE
8
PERFIL
10
6.564034
20
-7.979021
30
0
11
6.524112
21
-7.838661
31
0
0
LINE
8
PERFIL
10
6.524112
20
-7.838661
30
0
11
6.479662
21
-7.701666
31
0
0
LINE
8
PERFIL
10
6.479662
20
-7.701666
30
0
11
6.430458
21
-7.568330
31
0
0
LINE
8
PERFIL
10
6.430458
20
-7.568330
30
0
11
6.376161
21
-7.439045
31
0
0
LINE
8
PERFIL
10
6.376161
20
-7.439045
30
0
11
6.316225
21
-7.314385
31
0
0
LINE
8
PERFIL
10
6.316225
20
-7.314385
30
0
11
6.249630
21
-7.195336
31
0
0
LINE
8
PERFIL
10
6.249630
20
-7.195336
30
0
11
6.173286
21
-7.084685
31
0
0
LINE
8
PERFIL
10
6.173286
20
-7.084685
30
0
11
5.748290
21
-6.596943
31
0
0
LINE
8
PERFIL
10
6.596943
20
-5.748290
30
0
11
7.084685
21
-6.173286
31
0
0
LINE
8
PERFIL
10
7.084685
20
-6.173286
30
0
11
7.195336
21
-6.249630
31
0
0
LINE
8
PERFIL
10
7.195336
20
-6.249630
30
0
11
7.314385
21
-6.316225
31
0
0
LINE
8
PERFIL
10
7.314385
20
-6.316225
30
0
11
7.439045
21
-6.376161
31
0
0
LINE
8
PERFIL
10
7.439045
20
-6.376161
30
0
11
7.568330
21
-6.430458
31
0
0
LINE
8
PERFIL
10
7.568330
20
-6.430458
30
0
11
7.701666
21
-6.479662
31
0
0
LINE
8
PERFIL
10
7.701666
20
-6.479662
30
0
11
7.838661
21
-6.524112
31
0
0
LINE
8
PERFIL
10
7.838661
20
-6.524112
30
0
11
7.979021
21
-6.564034
31
0
0
LINE
8
PERFIL
10
7.979021
20
-6.564034
30
0
11
8.122508
21
-6.599585
31
0
0
LINE
8
PERFIL
10
8.122508
20
-6.599585
30
0
11
8.268928
21
-6.630878
31
0
0
LINE
8
PERFIL
10
8.268928
20
-6.630878
30
0
11
8.418109
21
-6.657994
31
0
0
LINE
8
PERFIL
10
8.418109
20
-6.657994
30
0
11
8.569902
21
-6.680992
31
0
0
LINE
8
PERFIL
10
8.569902
20
-6.680992
30
0
11
8.724171
21
-6.699914
31
0
0
LINE
8
PERFIL
10
9.067914
20
-6.226792
30
0
11
9.002247
21
-6.085921
31
0
0
LINE
8
PERFIL
10
9.002247
20
-6.085921
30
0
11
8.933468
21
-5.948664
31
0
0
LINE
8
PERFIL
10
8.933468
20
-5.948664
30
0
11
8.861579
21
-5.815164
31
0
0
LINE
8
PERFIL
10
8.861579
20
-5.815164
30
0
11
8.786571
21
-5.685581
31
0
0
LINE
8
PERFIL
10
8.786571
20
-5.685581
30
0
11
8.708420
21
-5.560102
31
0
0
LINE
8
PERFIL
10
8.708420
20
-5.560102
30
0
11
8.627079
21
-5.438948
31
0
0
LINE
8
PERFIL
10
8.627079
20
-5.438948
30
0
11
8.542471
21
-5.322394
31
0
0
LINE
8
PERFIL
10
8.542471
20
-5.322394
30
0
11
8.454472
21
-5.210788
31
0
0
LINE
8
PERFIL
10
8.454472
20
-5.210788
30
0
11
8.362881
21
-5.104610
31
0
0
LINE
8
PERFIL
10
8.362881
20
-5.104610
30
0
11
8.267356
21
-5.004573
31
0
0
LINE
8
PERFIL
10
8.267356
20
-5.004573
30
0
11
8.167232
21
-4.911929
31
0
0
LINE
8
PERFIL
10
8.167232
20
-4.911929
30
0
11
8.060432
21
-4.830285
31
0
0
LINE
8
PERFIL
10
8.060432
20
-4.830285
30
0
11
7.505516
21
-4.497747
31
0
0
LINE
8
PERFIL
10
8.050385
20
-3.428381
30
0
11
8.645586
21
-3.681856
31
0
0
LINE
8
PERFIL
10
8.645586
20
-3.681856
30
0
11
8.774413
21
-3.720270
31
0
0
LINE
8
PERFIL
10
8.774413
20
-3.720270
30
0
11
8.908214
21
-3.746818
31
0
0
LINE
8
PERFIL
10
8.908214
20
-3.746818
30
0
11
9.045294
21
-3.765298
31
0
0
LINE
8
PERFIL
10
9.045294
20
-3.765298
30
0
11
9.185030
21
-3.776987
31
0
0
LINE
8
PERFIL
10
9.185030
20
-3.776987
30
0
11
9.327045
21
-3.782579
31
0
0
LINE
8
PERFIL
10
9.327045
20
-3.782579
30
0
11
9.471071
21
-3.782520
31
0
0
LINE
8
PERFIL
10
9.471071
20
-3.782520
30
0
11
9.616898
21
-3.777114
31
0
0
LINE
8
PERFIL
10
9.616898
20
-3.777114
30
0
11
9.764348
21
-3.766585
31
0
0
LINE
8
PERFIL
10
9.764348
20
-3.766585
30
0
11
9.913272
21
-3.751100
31
0
0
LINE
8
PERFIL
10
9.913272
20
-3.751100
30
0
11
10.063531
21
-3.730790
31
0
0
LINE
8
PERFIL
10
10.063531
20
-3.730790
30
0
11
10.215001
21
-3.705756
31
0
0
LINE
8
PERFIL
10
10.215001
20
-3.705756
30
0
11
10.367567
21
-3.676080
31
0
0
LINE
8
PERFIL
10
10.548283
20
-3.119892
30
0
11
10.442298
21
-3.006208
31
0
0
LINE
8
PERFIL
10
10.442298
20
-3.006208
30
0
11
10.334471
21
-2.896923
31
0
0
LINE
8
PERFIL
10
10.334471
20
-2.896923
30
0
11
10.224847
21
-2.792171
31
0
0
LINE
8
PERFIL
10
10.224847
20
-2.792171
30
0
11
10.113467
21
-2.692109
31
0
0
LINE
8
PERFIL
10
10.113467
20
-2.692109
30
0
11
10.000366
21
-2.596921
31
0
0
LINE
8
PERFIL
10
10.000366
20
-2.596921
30
0
11
9.885567
21
-2.506833
31
0
0
LINE
8
PERFIL
10
9.885567
20
-2.506833
30
0
11
9.769083
21
-2.422129
31
0
0
LINE
8
PERFIL
10
9.769083
20
-2.422129
30
0
11
9.650902
21
-2.343179
31
0
0
LINE
8
PERFIL
10
9.650902
20
-2.343179
30
0
11
9.530984
21
-2.270500
31
0
0
LINE
8
PERFIL
10
9.530984
20
-2.270500
30
0
11
9.409221
21
-2.204878
31
0
0
LINE
8
PERFIL
10
9.409221
20
-2.204878
30
0
11
9.285369
21
-2.147709
31
0
0
LINE
8
PERFIL
10
9.285369
20
-2.147709
30
0
11
9.158567
21
-2.103064
31
0
0
LINE
8
PERFIL
10
9.158567
20
-2.103064
30
0
11
8.528050
21
-1.958279
31
0
0
ARC
8
PERFIL
10
0
20
0
30
0
40
11.000000
50
358.476766
51
1.523234
0
ARC
8
PERFIL
10
0
20
0
30
0
40
8.750000
50
5.067479
51
12.932521
0
ARC
8
PERFIL
10
0
20
0
30
0
40
11.000000
50
16.476766
51
19.523234
0
ARC
8
PERFIL
10
0
20
0
30
0
40
8.750000
50
23.067479
51
30.932521
0
ARC
8
PERFIL
10
0
20
0
30
0
40
11.000000
50
34.476766
51
37.523234
0
ARC
8
PERFIL
10
0
20
0
30
0
40
8.750000
50
41.067479
51
48.932521
0
ARC
8
PERFIL
10
0
20
0
30
0
40
11.000000
50
52.476766
51
55.523234
0
ARC
8
PERFIL
10
0
20
0
30
0
40
8.750000
50
59.067479
51
66.932521
0
ARC
8
PERFIL
10
0
20
0
30
0
40
11.000000
50
70.476766
51
73.523234
0
ARC
8
PERFIL
10
0
20
0
30
0
40
8.750000
50
77.067479
51
84.932521
0
ARC
8
PERFIL
10
0
20
0
30
0
40
11.000000
50
88.476766
51
91.523234
0
ARC
8
PERFIL
10
0
20
0
30
0
40
8.750000
50
95.067479
51
102.932521
0
ARC
8
PERFIL
10
0
20
0
30
0
40
11.000000
50
106.476766
51
109.523234
0
ARC
8
PERFIL
10
0
20
0
30
0
40
8.750000
50
113.067479
51
120.932521
0
ARC
8
PERFIL
10
0
20
0
30
0
40
11.000000
50
124.476766
51
127.523234
0
ARC
8
PERFIL
10
0
20
0
30
0
40
8.750000
50
131.067479
51
138.932521
0
ARC
8
PERFIL
10
0
20
0
30
0
40
11.000000
50
142.476766
51
145.523234
0
ARC
8
PERFIL
10
0
20
0
30
0
40
8.750000
50
149.067479
51
156.932521
0
ARC
8
PERFIL
10
0
20
0
30
0
40
11.000000
50
160.476766
51
163.523234
0
ARC
8
PERFIL
10
0
20
0
30
0
40
8.750000
50
167.067479
51
174.932521
0
ARC
8
PERFIL
10
0
20
0
30
0
40
11.000000
50
178.476766
51
181.523234
0
ARC
8
PERFIL
10
0
20
0
30
0
40
8.750000
50
185.067479
51
192.932521
0
ARC
8
PERFIL
10
0
20
0
30
0
40
11.000000
50
196.476766
51
199.523234
0
ARC
8
PERFIL
10
0
20
0
30
0
40
8.750000
50
203.067479
51
210.932521
0
ARC
8
PERFIL
10
0
20
0
30
0
40
11.000000
50
214.476766
51
217.523234
0
ARC
8
PERFIL
10
0
20
0
30
0
40
8.750000
50
221.067479
51
228.932521
0
ARC
8
PERFIL
10
0
20
0
30
0
40
11.000000
50
232.476766
51
235.523234
0
ARC
8
PERFIL
10
0
20
0
30
0
40
8.750000
50
239.067479
51
246.932521
0
ARC
8
PERFIL
10
0
20
0
30
0
40
11.000000
50
250.476766
51
253.523234
0
ARC
8
PERFIL
10
0
20
0
30
0
40
8.750000
50
257.067479
51
264.932521
0
ARC
8
PERFIL
10
0
20
0
30
0
40
11.000000
50
268.476766
51
271.523234
0
ARC
8
PERFIL
10
0
20
0
30
0
40
8.750000
50
275.067479
51
282.932521
0
ARC
8
PERFIL
10
0
20
0
30
0
40
11.000000
50
286.476766
51
289.523234
0
ARC
8
PERFIL
10
0
20
0
30
0
40
8.750000
50
293.067479
51
300.932521
0
ARC
8
PERFIL
10
0
20
0
30
0
40
11.000000
50
304.476766
51
307.523234
0
ARC
8
PERFIL
10
0
20
0
30
0
40
8.750000
50
311.067479
51
318.932521
0
ARC
8
PERFIL
10
0
20
0
30
0
40
11.000000
50
322.476766
51
325.523234
0
ARC
8
PERFIL
10
0
20
0
30
0
40
8.750000
50
329.067479
51
336.932521
0
ARC
8
PERFIL
10
0
20
0
30
0
40
11.000000
50
340.476766
51
343.523234
0
ARC
8
PERFIL
10
0
20
0
30
0
40
8.750000
50
347.067479
51
354.932521
0
ENDSEC
0
EOF
